<svg width="25" height="24" viewBox="0 0 25 24" fill="none" xmlns="http://www.w3.org/2000/svg">
<g clip-path="url(#clip0_11_11963)">
<path d="M18 24C14.416 24 11.5 21.084 11.5 17.5C11.5 13.916 14.416 11 18 11C21.584 11 24.5 13.916 24.5 17.5C24.5 21.084 21.584 24 18 24ZM18 12.5C15.243 12.5 13 14.743 13 17.5C13 20.257 15.243 22.5 18 22.5C20.757 22.5 23 20.257 23 17.5C23 14.743 20.757 12.5 18 12.5Z" fill="#2F95DB"/>
<path d="M15.583 12.085H17.083V22.914H15.583V12.085ZM18.917 12.085H20.417V22.914H18.917V12.085Z" fill="#2F95DB"/>
<path d="M12.585 15.083H23.415V16.583H12.585V15.083ZM12.585 18.417H23.415V19.917H12.585V18.417Z" fill="#2F95DB"/>
<path d="M8.75 20.0001H5.75C5.15351 19.9994 4.58167 19.762 4.15989 19.3403C3.7381 18.9185 3.50079 18.3466 3.5 17.7501V11.5001H1.75C1.061 11.5001 0.5 10.9391 0.5 10.2501C0.5 9.89914 0.649 9.56414 0.91 9.33114L10.482 0.207143C10.6215 0.0741759 10.8068 0 10.9995 0C11.1922 0 11.3775 0.0741759 11.517 0.207143L14 2.57014V1.75014C14 1.55123 14.079 1.36047 14.2197 1.21981C14.3603 1.07916 14.5511 1.00014 14.75 1.00014H17.75C17.9489 1.00014 18.1397 1.07916 18.2803 1.21981C18.421 1.36047 18.5 1.55123 18.5 1.75014V6.85914L19.419 7.73714C19.4902 7.8053 19.5472 7.88681 19.5869 7.97701C19.6266 8.06722 19.6481 8.16436 19.6502 8.26288C19.6524 8.3614 19.6351 8.45938 19.5994 8.55122C19.5636 8.64306 19.5102 8.72697 19.442 8.79814C19.3738 8.86932 19.2923 8.92638 19.2021 8.96605C19.1119 9.00573 19.0148 9.02725 18.9163 9.02938C18.8177 9.03152 18.7198 9.01423 18.6279 8.9785C18.5361 8.94277 18.4522 8.8893 18.381 8.82114L17.231 7.72114C17.1579 7.65126 17.0998 7.56729 17.0601 7.47431C17.0204 7.38132 16.9999 7.28125 17 7.18014V2.50014H15.5V4.32014C15.5001 4.46706 15.4571 4.61079 15.3762 4.73346C15.2954 4.85614 15.1803 4.95237 15.0452 5.01021C14.9102 5.06804 14.7611 5.08494 14.6165 5.05879C14.472 5.03265 14.3382 4.96462 14.232 4.86314L11 1.78614L2.382 10.0001H4.25C4.44891 10.0001 4.63968 10.0792 4.78033 10.2198C4.92098 10.3605 5 10.5512 5 10.7501V17.7501C5 18.1641 5.337 18.5001 5.75 18.5001H8.75C8.94891 18.5001 9.13968 18.5792 9.28033 18.7198C9.42098 18.8605 9.5 19.0512 9.5 19.2501C9.5 19.4491 9.42098 19.6398 9.28033 19.7805C9.13968 19.9211 8.94891 20.0001 8.75 20.0001Z" fill="#2F95DB"/>
</g>
<defs>
<clipPath id="clip0_11_11963">
<rect width="24" height="24" fill="white" transform="translate(0.5)"/>
</clipPath>
</defs>
</svg>
