<svg width="25" height="24" viewBox="0 0 25 24" fill="none" xmlns="http://www.w3.org/2000/svg">
<g clip-path="url(#clip0_11_13893)">
<path d="M23.75 23H1.25C1.05109 23 0.860322 22.921 0.71967 22.7803C0.579018 22.6397 0.5 22.4489 0.5 22.25C0.5 22.0511 0.579018 21.8603 0.71967 21.7197C0.860322 21.579 1.05109 21.5 1.25 21.5H23.75C23.9489 21.5 24.1397 21.579 24.2803 21.7197C24.421 21.8603 24.5 22.0511 24.5 22.25C24.5 22.4489 24.421 22.6397 24.2803 22.7803C24.1397 22.921 23.9489 23 23.75 23Z" fill="#2F95DB"/>
<path d="M2.25 24C2.05109 24 1.86032 23.921 1.71967 23.7803C1.57902 23.6397 1.5 23.4489 1.5 23.25V0.75C1.5 0.551088 1.57902 0.360322 1.71967 0.21967C1.86032 0.0790176 2.05109 0 2.25 0C2.44891 0 2.63968 0.0790176 2.78033 0.21967C2.92098 0.360322 3 0.551088 3 0.75V23.25C3 23.4489 2.92098 23.6397 2.78033 23.7803C2.63968 23.921 2.44891 24 2.25 24ZM7.5 18C5.846 18 4.5 16.654 4.5 15C4.5 13.346 5.846 12 7.5 12C9.154 12 10.5 13.346 10.5 15C10.5 16.654 9.154 18 7.5 18ZM7.5 13.5C6.673 13.5 6 14.173 6 15C6 15.827 6.673 16.5 7.5 16.5C8.327 16.5 9 15.827 9 15C9 14.173 8.327 13.5 7.5 13.5ZM12.5 10C10.846 10 9.5 8.654 9.5 7C9.5 5.346 10.846 4 12.5 4C14.154 4 15.5 5.346 15.5 7C15.5 8.654 14.154 10 12.5 10ZM12.5 5.5C11.673 5.5 11 6.173 11 7C11 7.827 11.673 8.5 12.5 8.5C13.327 8.5 14 7.827 14 7C14 6.173 13.327 5.5 12.5 5.5ZM21.5 8C19.846 8 18.5 6.654 18.5 5C18.5 3.346 19.846 2 21.5 2C23.154 2 24.5 3.346 24.5 5C24.5 6.654 23.154 8 21.5 8ZM21.5 3.5C20.673 3.5 20 4.173 20 5C20 5.827 20.673 6.5 21.5 6.5C22.327 6.5 23 5.827 23 5C23 4.173 22.327 3.5 21.5 3.5Z" fill="#2F95DB"/>
<path d="M8.8183 13.6298C8.68426 13.6302 8.55258 13.5945 8.43705 13.5265C8.32152 13.4586 8.22638 13.3608 8.16158 13.2435C8.09678 13.1261 8.0647 12.9935 8.06869 12.8595C8.07269 12.7256 8.11262 12.5951 8.1843 12.4818L10.5443 8.72184C10.5966 8.63845 10.6649 8.56619 10.7451 8.50917C10.8254 8.45216 10.9161 8.41151 11.0121 8.38955C11.108 8.36759 11.2074 8.36474 11.3045 8.38118C11.4015 8.39762 11.4944 8.43301 11.5778 8.48534C11.6612 8.53767 11.7335 8.60592 11.7905 8.68618C11.8475 8.76644 11.8881 8.85714 11.9101 8.95311C11.9321 9.04908 11.9349 9.14844 11.9185 9.2455C11.902 9.34257 11.8666 9.43545 11.8143 9.51884L9.4543 13.2788C9.3867 13.3864 9.29288 13.4751 9.18163 13.5365C9.07038 13.5979 8.94536 13.63 8.8183 13.6298ZM14.9383 7.20984C14.7542 7.20867 14.5769 7.13988 14.4401 7.01655C14.3034 6.89322 14.2167 6.72395 14.1966 6.54091C14.1765 6.35786 14.2243 6.17381 14.331 6.02372C14.4377 5.87364 14.5958 5.76798 14.7753 5.72684L18.8953 4.80684C19.0869 4.77017 19.2853 4.80953 19.4485 4.91658C19.6116 5.02363 19.7267 5.18997 19.7693 5.38038C19.8119 5.57079 19.7788 5.77031 19.6769 5.9367C19.575 6.1031 19.4123 6.22329 19.2233 6.27184L15.1033 7.19184C15.0491 7.20365 14.9938 7.20968 14.9383 7.20984Z" fill="#2F95DB"/>
</g>
<defs>
<clipPath id="clip0_11_13893">
<rect width="24" height="24" fill="white" transform="translate(0.5)"/>
</clipPath>
</defs>
</svg>
