<svg width="28" height="28" viewBox="0 0 28 28" fill="none" xmlns="http://www.w3.org/2000/svg">
<g clip-path="url(#clip0_21_6861)">
<path d="M8.45833 10.5H2.04167C0.915833 10.5 0 9.58417 0 8.45833V2.04167C0 0.915833 0.915833 0 2.04167 0H8.45833C9.58417 0 10.5 0.915833 10.5 2.04167V8.45833C10.5 9.58417 9.58417 10.5 8.45833 10.5ZM2.04167 1.75C1.96459 1.75091 1.89093 1.78193 1.83643 1.83643C1.78193 1.89093 1.75091 1.96459 1.75 2.04167V8.45833C1.75 8.617 1.883 8.75 2.04167 8.75H8.45833C8.617 8.75 8.75 8.617 8.75 8.45833V2.04167C8.74909 1.96459 8.71807 1.89093 8.66357 1.83643C8.60907 1.78193 8.53541 1.75091 8.45833 1.75H2.04167ZM25.9583 10.5H19.5417C18.4158 10.5 17.5 9.58417 17.5 8.45833V2.04167C17.5 0.915833 18.4158 0 19.5417 0H25.9583C27.0842 0 28 0.915833 28 2.04167V8.45833C28 9.58417 27.0842 10.5 25.9583 10.5ZM19.5417 1.75C19.4646 1.75091 19.3909 1.78193 19.3364 1.83643C19.2819 1.89093 19.2509 1.96459 19.25 2.04167V8.45833C19.25 8.617 19.383 8.75 19.5417 8.75H25.9583C26.117 8.75 26.25 8.617 26.25 8.45833V2.04167C26.2491 1.96459 26.2181 1.89093 26.1636 1.83643C26.1091 1.78193 26.0354 1.75091 25.9583 1.75H19.5417ZM8.45833 28H2.04167C0.915833 28 0 27.0842 0 25.9583V19.5417C0 18.4158 0.915833 17.5 2.04167 17.5H8.45833C9.58417 17.5 10.5 18.4158 10.5 19.5417V25.9583C10.5 27.0842 9.58417 28 8.45833 28ZM2.04167 19.25C1.96459 19.2509 1.89093 19.2819 1.83643 19.3364C1.78193 19.3909 1.75091 19.4646 1.75 19.5417V25.9583C1.75 26.117 1.883 26.25 2.04167 26.25H8.45833C8.617 26.25 8.75 26.117 8.75 25.9583V19.5417C8.74909 19.4646 8.71807 19.3909 8.66357 19.3364C8.60907 19.2819 8.53541 19.2509 8.45833 19.25H2.04167ZM25.9583 28H19.5417C18.4158 28 17.5 27.0842 17.5 25.9583V19.5417C17.5 18.4158 18.4158 17.5 19.5417 17.5H25.9583C27.0842 17.5 28 18.4158 28 19.5417V25.9583C28 27.0842 27.0842 28 25.9583 28ZM19.5417 19.25C19.4646 19.2509 19.3909 19.2819 19.3364 19.3364C19.2819 19.3909 19.2509 19.4646 19.25 19.5417V25.9583C19.25 26.117 19.383 26.25 19.5417 26.25H25.9583C26.117 26.25 26.25 26.117 26.25 25.9583V19.5417C26.2491 19.4646 26.2181 19.3909 26.1636 19.3364C26.1091 19.2819 26.0354 19.2509 25.9583 19.25H19.5417Z" fill="white"/>
<path d="M18.0833 6.125H5.25C5.01794 6.125 4.79538 6.03281 4.63128 5.86872C4.46719 5.70462 4.375 5.48206 4.375 5.25C4.375 5.01794 4.46719 4.79538 4.63128 4.63128C4.79538 4.46719 5.01794 4.375 5.25 4.375H18.0833C18.3154 4.375 18.538 4.46719 18.7021 4.63128C18.8661 4.79538 18.9583 5.01794 18.9583 5.25C18.9583 5.48206 18.8661 5.70462 18.7021 5.86872C18.538 6.03281 18.3154 6.125 18.0833 6.125ZM22.75 23.625H9.91667C9.6846 23.625 9.46204 23.5328 9.29795 23.3687C9.13385 23.2046 9.04167 22.9821 9.04167 22.75C9.04167 22.5179 9.13385 22.2954 9.29795 22.1313C9.46204 21.9672 9.6846 21.875 9.91667 21.875H22.75C22.9821 21.875 23.2046 21.9672 23.3687 22.1313C23.5328 22.2954 23.625 22.5179 23.625 22.75C23.625 22.9821 23.5328 23.2046 23.3687 23.3687C23.2046 23.5328 22.9821 23.625 22.75 23.625ZM22.75 18.9583C22.5179 18.9583 22.2954 18.8661 22.1313 18.7021C21.9672 18.538 21.875 18.3154 21.875 18.0833V5.25C21.875 5.01794 21.9672 4.79538 22.1313 4.63128C22.2954 4.46719 22.5179 4.375 22.75 4.375C22.9821 4.375 23.2046 4.46719 23.3687 4.63128C23.5328 4.79538 23.625 5.01794 23.625 5.25V18.0833C23.625 18.3154 23.5328 18.538 23.3687 18.7021C23.2046 18.8661 22.9821 18.9583 22.75 18.9583ZM5.25 23.625C5.01794 23.625 4.79538 23.5328 4.63128 23.3687C4.46719 23.2046 4.375 22.9821 4.375 22.75V9.91667C4.375 9.6846 4.46719 9.46204 4.63128 9.29795C4.79538 9.13385 5.01794 9.04167 5.25 9.04167C5.48206 9.04167 5.70462 9.13385 5.86872 9.29795C6.03281 9.46204 6.125 9.6846 6.125 9.91667V22.75C6.125 22.9821 6.03281 23.2046 5.86872 23.3687C5.70462 23.5328 5.48206 23.625 5.25 23.625Z" fill="white"/>
</g>
<defs>
<clipPath id="clip0_21_6861">
<rect width="28" height="28" fill="white"/>
</clipPath>
</defs>
</svg>
