<svg width="28" height="28" viewBox="0 0 28 28" fill="none" xmlns="http://www.w3.org/2000/svg">
<g clip-path="url(#clip0_21_6867)">
<path d="M24.209 23.625H20.7079C19.8572 23.6244 19.0415 23.2862 18.4399 22.6846C17.8384 22.0831 17.5002 21.2674 17.4995 20.4167V13.7083C17.4995 13.4763 17.5917 13.2537 17.7558 13.0896C17.9199 12.9255 18.1425 12.8333 18.3745 12.8333C18.6066 12.8333 18.8292 12.9255 18.9933 13.0896C19.1574 13.2537 19.2495 13.4763 19.2495 13.7083V20.4167C19.2495 21.2205 19.904 21.875 20.7079 21.875H24.209C24.4411 21.875 24.6637 21.9672 24.8278 22.1313C24.9918 22.2954 25.084 22.5179 25.084 22.75C25.084 22.9821 24.9918 23.2046 24.8278 23.3687C24.6637 23.5328 24.4411 23.625 24.209 23.625ZM7.29121 23.625H3.79004C3.55797 23.625 3.33541 23.5328 3.17132 23.3687C3.00723 23.2046 2.91504 22.9821 2.91504 22.75C2.91504 22.5179 3.00723 22.2954 3.17132 22.1313C3.33541 21.9672 3.55797 21.875 3.79004 21.875H7.29121C8.09504 21.875 8.74954 21.2205 8.74954 20.4167V13.7083C8.74954 13.4763 8.84173 13.2537 9.00582 13.0896C9.16991 12.9255 9.39247 12.8333 9.62454 12.8333C9.8566 12.8333 10.0792 12.9255 10.2433 13.0896C10.4074 13.2537 10.4995 13.4763 10.4995 13.7083V20.4167C10.4989 21.2674 10.1607 22.0831 9.55916 22.6846C8.95761 23.2862 8.14192 23.6244 7.29121 23.625ZM13.9995 27.4167C13.7675 27.4167 13.5449 27.3245 13.3808 27.1604C13.2167 26.9963 13.1245 26.7737 13.1245 26.5417V11.375C13.1245 11.1429 13.2167 10.9204 13.3808 10.7563C13.5449 10.5922 13.7675 10.5 13.9995 10.5C14.2316 10.5 14.4542 10.5922 14.6183 10.7563C14.7824 10.9204 14.8745 11.1429 14.8745 11.375V26.5417C14.8745 26.7737 14.7824 26.9963 14.6183 27.1604C14.4542 27.3245 14.2316 27.4167 13.9995 27.4167Z" fill="#090909"/>
<path d="M5.25 25.6667C5.13507 25.667 5.02124 25.6444 4.91509 25.6003C4.80895 25.5563 4.71261 25.4916 4.63167 25.41L2.59 23.3683C2.50869 23.2871 2.44419 23.1906 2.40018 23.0844C2.35617 22.9782 2.33352 22.8644 2.33352 22.7494C2.33352 22.6345 2.35617 22.5206 2.40018 22.4144C2.44419 22.3082 2.50869 22.2118 2.59 22.1305L4.63167 20.0888C4.71294 20.0076 4.80943 19.9431 4.91563 19.8991C5.02182 19.8551 5.13564 19.8325 5.25058 19.8325C5.36553 19.8325 5.47934 19.8551 5.58554 19.8991C5.69173 19.9431 5.78822 20.0076 5.8695 20.0888C5.95078 20.1701 6.01525 20.2666 6.05924 20.3728C6.10322 20.479 6.12586 20.5928 6.12586 20.7078C6.12586 20.8227 6.10322 20.9365 6.05924 21.0427C6.01525 21.1489 5.95078 21.2454 5.8695 21.3267L4.44617 22.75L5.8695 24.1733C5.99179 24.2958 6.07502 24.4517 6.10868 24.6215C6.14234 24.7912 6.12492 24.9671 6.05861 25.127C5.9923 25.2868 5.88009 25.4234 5.73616 25.5194C5.59223 25.6155 5.42305 25.6667 5.25 25.6667ZM22.75 25.6667C22.5768 25.6667 22.4075 25.6154 22.2635 25.5192C22.1195 25.423 22.0073 25.2862 21.9411 25.1262C21.8749 24.9662 21.8576 24.7901 21.8916 24.6202C21.9255 24.4504 22.009 24.2945 22.1317 24.1722L23.555 22.7488L22.1317 21.3255C22.0504 21.2442 21.9859 21.1477 21.9419 21.0415C21.8979 20.9353 21.8753 20.8215 21.8753 20.7066C21.8753 20.5916 21.8979 20.4778 21.9419 20.3716C21.9859 20.2654 22.0504 20.1689 22.1317 20.0877C22.2129 20.0064 22.3094 19.9419 22.4156 19.8979C22.5218 19.8539 22.6356 19.8313 22.7506 19.8313C22.8655 19.8313 22.9793 19.8539 23.0855 19.8979C23.1917 19.9419 23.2882 20.0064 23.3695 20.0877L25.4112 22.1293C25.4925 22.2106 25.557 22.3071 25.601 22.4133C25.645 22.5195 25.6676 22.6333 25.6676 22.7483C25.6676 22.8632 25.645 22.977 25.601 23.0832C25.557 23.1894 25.4925 23.2859 25.4112 23.3672L23.3695 25.4088C23.2885 25.4907 23.192 25.5557 23.0856 25.5999C22.9793 25.6442 22.8652 25.6669 22.75 25.6667ZM14 28C13.8851 28.0003 13.7712 27.9777 13.6651 27.9337C13.5589 27.8896 13.4626 27.8249 13.3817 27.7433L11.34 25.7017C11.2587 25.6204 11.1942 25.5239 11.1503 25.4177C11.1063 25.3115 11.0836 25.1977 11.0836 25.0828C11.0836 24.9678 11.1063 24.854 11.1503 24.7478C11.1942 24.6416 11.2587 24.5451 11.34 24.4638C11.5041 24.2997 11.7268 24.2075 11.9589 24.2075C12.0739 24.2075 12.1877 24.2301 12.2939 24.2741C12.4001 24.3181 12.4966 24.3826 12.5778 24.4638L14.0012 25.8872L15.4245 24.4638C15.5058 24.3826 15.6023 24.3181 15.7085 24.2741C15.8147 24.2301 15.9285 24.2075 16.0434 24.2075C16.1584 24.2075 16.2722 24.2301 16.3784 24.2741C16.4846 24.3181 16.5811 24.3826 16.6623 24.4638C16.7436 24.5451 16.8081 24.6416 16.8521 24.7478C16.8961 24.854 16.9187 24.9678 16.9187 25.0828C16.9187 25.1977 16.8961 25.3115 16.8521 25.4177C16.8081 25.5239 16.7436 25.6204 16.6623 25.7017L14.6207 27.7433C14.5391 27.8248 14.4424 27.8894 14.3359 27.9334C14.2294 27.9775 14.1152 28.0001 14 28ZM5.83333 18.655H5.80767C2.5515 18.5582 0 15.9495 0 12.7167C0 9.6495 2.35667 7.11667 5.37017 6.8005C6.27667 2.87583 9.86417 0 14 0C17.2573 0 20.2568 1.78383 21.7828 4.585C25.3085 5.02483 28 8.00683 28 11.585C28 14.9088 25.6223 17.8208 22.3463 18.508C22.1192 18.5558 21.8824 18.5114 21.688 18.3846C21.4936 18.2579 21.3576 18.059 21.3097 17.8319C21.2619 17.6048 21.3063 17.368 21.4331 17.1736C21.5599 16.9792 21.7587 16.8431 21.9858 16.7953C24.4557 16.2773 26.2488 14.0863 26.2488 11.585C26.2488 8.76517 24.0205 6.43767 21.1738 6.28717C21.0159 6.2784 20.8633 6.22716 20.7321 6.13886C20.6009 6.05057 20.4959 5.92848 20.4283 5.7855C19.2792 3.33433 16.7545 1.75 14 1.75C10.4802 1.75 7.4585 4.33533 6.9685 7.76533C6.93871 7.97396 6.83463 8.16483 6.67538 8.30287C6.51613 8.4409 6.31241 8.51682 6.10167 8.51667C3.65983 8.51667 1.75 10.4008 1.75 12.7167C1.75 14.9975 3.55483 16.8373 5.859 16.9062C6.08574 16.9171 6.29936 17.0157 6.45475 17.1812C6.61015 17.3466 6.69515 17.566 6.69182 17.793C6.68849 18.02 6.59708 18.2368 6.4369 18.3976C6.27671 18.5584 6.06029 18.6507 5.83333 18.655Z" fill="#090909"/>
</g>
<defs>
<clipPath id="clip0_21_6867">
<rect width="28" height="28" fill="white"/>
</clipPath>
</defs>
</svg>
