<svg width="23" height="18" viewBox="0 0 23 18" fill="none" xmlns="http://www.w3.org/2000/svg">
<path d="M21.75 18H17.25C17.0511 18 16.8603 17.921 16.7197 17.7803C16.579 17.6397 16.5 17.4489 16.5 17.25V9.25C16.5 8.561 17.061 8 17.75 8H21.25C21.939 8 22.5 8.561 22.5 9.25V17.25C22.5 17.4489 22.421 17.6397 22.2803 17.7803C22.1397 17.921 21.9489 18 21.75 18ZM18 16.5H21V9.5H18V16.5ZM13.75 18H9.25C9.05109 18 8.86032 17.921 8.71967 17.7803C8.57902 17.6397 8.5 17.4489 8.5 17.25V5.25C8.5 4.561 9.061 4 9.75 4H13.25C13.939 4 14.5 4.561 14.5 5.25V17.25C14.5 17.4489 14.421 17.6397 14.2803 17.7803C14.1397 17.921 13.9489 18 13.75 18ZM10 16.5H13V5.5H10V16.5ZM5.75 18H1.25C1.05109 18 0.860322 17.921 0.71967 17.7803C0.579018 17.6397 0.5 17.4489 0.5 17.25V1.25C0.5 0.561 1.061 0 1.75 0H5.25C5.939 0 6.5 0.561 6.5 1.25V17.25C6.5 17.4489 6.42098 17.6397 6.28033 17.7803C6.13968 17.921 5.94891 18 5.75 18ZM2 16.5H5V1.5H2V16.5Z" fill="#2F95DB"/>
</svg>
