<svg width="25" height="24" viewBox="0 0 25 24" fill="none" xmlns="http://www.w3.org/2000/svg">
<g clip-path="url(#clip0_11_15835)">
<path d="M23.75 19H1.25C1.05109 19 0.860322 18.921 0.71967 18.7803C0.579018 18.6397 0.5 18.4489 0.5 18.25C0.5 18.0511 0.579018 17.8603 0.71967 17.7197C0.860322 17.579 1.05109 17.5 1.25 17.5H23.75C23.9489 17.5 24.1397 17.579 24.2803 17.7197C24.421 17.8603 24.5 18.0511 24.5 18.25C24.5 18.4489 24.421 18.6397 24.2803 18.7803C24.1397 18.921 23.9489 19 23.75 19Z" fill="#2F95DB"/>
<path d="M21.75 19C21.5511 19 21.3603 18.921 21.2197 18.7803C21.079 18.6397 21 18.4489 21 18.25V10.75C21 10.5511 21.079 10.3603 21.2197 10.2197C21.3603 10.079 21.5511 10 21.75 10C21.9489 10 22.1397 10.079 22.2803 10.2197C22.421 10.3603 22.5 10.5511 22.5 10.75V18.25C22.5 18.4489 22.421 18.6397 22.2803 18.7803C22.1397 18.921 21.9489 19 21.75 19ZM3.25 19C3.05109 19 2.86032 18.921 2.71967 18.7803C2.57902 18.6397 2.5 18.4489 2.5 18.25V6.75C2.5 5.785 3.285 5 4.25 5H6.75C6.94891 5 7.13968 5.07902 7.28033 5.21967C7.42098 5.36032 7.5 5.55109 7.5 5.75C7.5 5.94891 7.42098 6.13968 7.28033 6.28033C7.13968 6.42098 6.94891 6.5 6.75 6.5H4.25C4.1837 6.5 4.12011 6.52634 4.07322 6.57322C4.02634 6.62011 4 6.6837 4 6.75V18.25C4 18.4489 3.92098 18.6397 3.78033 18.7803C3.63968 18.921 3.44891 19 3.25 19ZM15.819 11.928C15.7205 11.928 15.623 11.9086 15.5321 11.8708C15.4411 11.8331 15.3585 11.7778 15.289 11.708L11.828 8.247C11.6922 8.11116 11.6137 7.92839 11.6087 7.73638C11.6037 7.54438 11.6725 7.35776 11.801 7.215L14.636 4.068C16.725 1.655 19.922 0.054 22.772 0C22.9741 0.00446459 23.1676 0.0827158 23.316 0.22C23.461 0.364 23.54 0.56 23.536 0.764C23.483 3.614 21.882 6.811 19.457 8.91L16.321 11.735C16.1836 11.8597 16.0045 11.9285 15.819 11.928ZM13.393 7.69L15.847 10.144L18.464 7.786C20.323 6.177 21.659 3.77 21.969 1.567C19.767 1.877 17.361 3.212 15.761 5.061L13.393 7.69Z" fill="#2F95DB"/>
<path d="M18.1316 14.252C18.0329 14.2522 17.9351 14.2327 17.844 14.1947C17.7528 14.1568 17.6701 14.1012 17.6006 14.031L15.2876 11.707C15.2162 11.6377 15.1593 11.5548 15.1202 11.4632C15.0811 11.3716 15.0607 11.2731 15.06 11.1736C15.0594 11.074 15.0786 10.9753 15.1166 10.8832C15.1545 10.7911 15.2104 10.7075 15.2809 10.6373C15.3515 10.567 15.4354 10.5116 15.5276 10.4741C15.6199 10.4366 15.7187 10.4178 15.8182 10.4189C15.9178 10.42 16.0162 10.4409 16.1076 10.4804C16.199 10.5199 16.2816 10.5772 16.3506 10.649L18.0046 12.311C18.6746 11.001 18.7656 9.37102 18.7926 7.79002C18.796 7.59337 18.8766 7.40592 19.0168 7.26807C19.1571 7.13022 19.3459 7.05299 19.5426 7.05302H19.5556C19.6541 7.05471 19.7513 7.07579 19.8417 7.11505C19.932 7.15432 20.0137 7.21099 20.0822 7.28185C20.1506 7.3527 20.2044 7.43634 20.2405 7.528C20.2767 7.61965 20.2944 7.71752 20.2926 7.81602C20.2566 9.86502 20.1036 12.2 18.7226 13.963C18.6524 14.0528 18.5627 14.1254 18.4604 14.1755C18.358 14.2255 18.2456 14.2517 18.1316 14.252ZM12.3236 8.43302C12.1254 8.43311 11.9352 8.35473 11.7946 8.21502L9.47063 5.90202C9.39482 5.82733 9.33585 5.7373 9.29767 5.63797C9.25948 5.53863 9.24296 5.43229 9.24921 5.32605C9.25546 5.21981 9.28433 5.11614 9.3339 5.02197C9.38347 4.9278 9.45259 4.84531 9.53663 4.78002C11.2996 3.40002 13.6346 3.24502 15.6836 3.20902H15.6976C15.8965 3.20716 16.088 3.2844 16.23 3.42374C16.372 3.56308 16.4528 3.7531 16.4546 3.95202C16.4565 4.15093 16.3792 4.34243 16.2399 4.4844C16.1006 4.62636 15.9105 4.70716 15.7116 4.70902C14.1306 4.73702 12.4996 4.82802 11.1906 5.49802L12.8526 7.15202C12.9577 7.25679 13.0293 7.39036 13.0584 7.53584C13.0875 7.68132 13.0728 7.83216 13.0162 7.96929C12.9596 8.10642 12.8635 8.22367 12.7403 8.30621C12.617 8.38876 12.472 8.43289 12.3236 8.43302ZM9.28563 15.25C9.16854 15.2504 9.053 15.2233 8.9483 15.1709C8.8436 15.1185 8.75267 15.0422 8.68282 14.9482C8.61298 14.8543 8.56617 14.7452 8.54616 14.6298C8.52615 14.5145 8.5335 14.396 8.56763 14.284C8.83763 13.385 9.53063 11.227 10.1416 10.615C10.9496 9.80802 12.3596 9.80502 13.1706 10.615C13.5756 11.02 13.7986 11.558 13.7986 12.13C13.7986 12.702 13.5756 13.24 13.1706 13.645C12.5586 14.256 10.3996 14.949 9.50063 15.218C9.431 15.2395 9.35851 15.2503 9.28563 15.25ZM11.6556 11.488C11.5713 11.4878 11.4877 11.5043 11.4098 11.5366C11.3319 11.5688 11.2611 11.6162 11.2016 11.676C11.0416 11.848 10.7516 12.528 10.4656 13.321C11.2576 13.035 11.9376 12.745 12.1116 12.584C12.1717 12.5248 12.2194 12.4542 12.252 12.3763C12.2845 12.2984 12.3013 12.2149 12.3013 12.1305C12.3013 12.0461 12.2845 11.9626 12.252 11.8847C12.2194 11.8069 12.1717 11.7363 12.1116 11.677C12.0518 11.6171 11.9807 11.5695 11.9025 11.5371C11.8242 11.5047 11.7403 11.488 11.6556 11.488Z" fill="#2F95DB"/>
</g>
<defs>
<clipPath id="clip0_11_15835">
<rect width="24" height="24" fill="white" transform="translate(0.5)"/>
</clipPath>
</defs>
</svg>
