<svg width="25" height="24" viewBox="0 0 25 24" fill="none" xmlns="http://www.w3.org/2000/svg">
<g clip-path="url(#clip0_11_11951)">
<path d="M9.51899 8.83478C8.41765 8.83555 7.35845 8.41144 6.56199 7.65078C5.69499 6.81778 5.48299 5.75678 5.27799 4.72978C5.04799 3.57578 4.82999 2.48478 3.76199 1.45978C3.65914 1.36035 3.58682 1.23361 3.55355 1.09448C3.52028 0.95535 3.52744 0.80961 3.57419 0.674409C3.62094 0.539208 3.70533 0.420171 3.81743 0.331305C3.92954 0.242438 4.06469 0.187438 4.20699 0.172777L4.33099 0.159777C6.71499 -0.0802228 9.68399 -0.378223 12.051 1.89778C12.823 2.63978 13.292 3.77378 13.303 4.92978C13.314 6.03878 12.922 7.04778 12.199 7.77078C11.489 8.48178 10.515 8.83478 9.51899 8.83478ZM5.74599 1.53878C6.37199 2.54778 6.57599 3.56778 6.74899 4.43578C6.93099 5.34478 7.07399 6.06278 7.60099 6.56878C8.50699 7.43978 10.144 7.70478 11.14 6.71078C11.575 6.27478 11.811 5.64778 11.804 4.94578C11.795 4.18378 11.5 3.44878 11.012 2.97978C9.49699 1.52378 7.57899 1.41278 5.74599 1.53878ZM18.585 7.03578C18.515 7.03578 18.444 7.03378 18.373 7.02878C17.542 6.97878 16.817 6.64478 16.331 6.08878C15.7499 5.4174 15.4545 4.54534 15.5079 3.65902C15.5614 2.77271 15.9594 1.94246 16.617 1.34578C18.557 -0.399223 20.983 -0.0812228 22.753 0.152777C23.043 0.190777 23.332 0.400777 23.419 0.679777C23.506 0.958777 23.469 1.26978 23.252 1.46578C22.444 2.19378 22.255 3.00078 22.056 3.85778C21.867 4.66878 21.672 5.50678 20.942 6.16378C20.326 6.71678 19.458 7.03578 18.585 7.03578ZM17.621 2.46078C16.956 3.05878 16.707 4.23778 17.461 5.10278C17.681 5.35378 18.037 5.50678 18.463 5.53278C19.002 5.55878 19.57 5.38078 19.938 5.04878C20.317 4.70778 20.439 4.18278 20.595 3.51778C20.737 2.90878 20.901 2.20378 21.309 1.49978C19.993 1.39578 18.685 1.50478 17.621 2.46078Z" fill="#2F95DB"/>
<path d="M14.3795 12.0601C14.2046 12.0598 14.0353 11.9983 13.9009 11.8864C13.7665 11.7745 13.6755 11.6191 13.6435 11.4471C12.9995 7.9711 9.93855 5.36011 9.90855 5.33411C9.75606 5.206 9.6607 5.02257 9.64345 4.82416C9.6262 4.62575 9.68846 4.42861 9.81655 4.2761C9.94506 4.12444 10.1284 4.02983 10.3265 4.01297C10.5245 3.9961 10.7212 4.05835 10.8735 4.1861C11.0165 4.3061 14.3775 7.1751 15.1175 11.1721C15.138 11.2805 15.1343 11.3921 15.1066 11.4989C15.079 11.6056 15.0281 11.705 14.9576 11.7898C14.8871 11.8747 14.7987 11.9429 14.6988 11.9896C14.5989 12.0363 14.4899 12.0604 14.3795 12.0601Z" fill="#2F95DB"/>
<path d="M14.38 12.0572H14.374C14.176 12.0561 13.9864 11.9766 13.847 11.836C13.7075 11.6954 13.6295 11.5052 13.63 11.3072C13.63 11.1292 13.694 6.91817 18.363 4.10817C18.5332 4.01119 18.7345 3.98462 18.924 4.03413C19.1135 4.08365 19.2761 4.20533 19.3771 4.37316C19.478 4.54099 19.5093 4.74165 19.4643 4.93226C19.4192 5.12287 19.3014 5.28829 19.136 5.39317C15.219 7.75117 15.132 11.1702 15.13 11.3152C15.1276 11.5126 15.0476 11.7012 14.9072 11.84C14.7669 11.9789 14.5775 12.0569 14.38 12.0572ZM4 22.0002H1.25C1.05109 22.0002 0.860322 21.9212 0.71967 21.7805C0.579018 21.6398 0.5 21.4491 0.5 21.2502V12.7502C0.5 12.5513 0.579018 12.3605 0.71967 12.2198C0.860322 12.0792 1.05109 12.0002 1.25 12.0002C4.755 12.0002 6.388 13.2172 6.455 13.2692C6.57342 13.3595 6.66225 13.4831 6.71016 13.6242C6.75807 13.7652 6.76289 13.9174 6.724 14.0612L4.724 21.4472C4.68075 21.606 4.58643 21.7463 4.45559 21.8462C4.32474 21.9461 4.16465 22.0002 4 22.0002ZM2 20.5002H3.426L5.124 14.2292C4.601 13.9822 3.578 13.6142 1.999 13.5222V20.5002H2Z" fill="#2F95DB"/>
<path d="M13.4995 24C11.0905 24 6.48847 22 3.95947 20.809C3.87037 20.767 3.79042 20.7078 3.72418 20.6349C3.65794 20.5619 3.60672 20.4767 3.57343 20.384C3.54014 20.2913 3.52543 20.1929 3.53016 20.0945C3.53489 19.9961 3.55895 19.8996 3.60097 19.8105C3.68584 19.6305 3.83872 19.4917 4.02597 19.4244C4.11869 19.3911 4.21706 19.3764 4.31546 19.3812C4.41386 19.3859 4.51037 19.41 4.59947 19.452C8.70947 21.39 11.9535 22.501 13.4995 22.501C15.5275 22.501 20.1315 20.311 22.5435 19.047C22.2655 18.888 21.8515 18.751 21.2495 18.751C20.3715 18.751 19.2865 19.112 18.2365 19.463C17.0735 19.851 15.8705 20.251 14.7495 20.251C12.6415 20.251 9.86047 19.248 9.74347 19.206C9.55649 19.1381 9.40415 18.9987 9.31994 18.8185C9.23574 18.6382 9.22658 18.432 9.29447 18.245C9.36237 18.058 9.50176 17.9057 9.68198 17.8214C9.8622 17.7372 10.0685 17.7281 10.2555 17.796C10.2815 17.806 12.9075 18.751 14.7495 18.751C15.6275 18.751 16.7125 18.39 17.7625 18.039C18.9255 17.651 20.1285 17.251 21.2495 17.251C23.7285 17.251 24.4175 18.902 24.4455 18.973C24.5138 19.1427 24.5175 19.3316 24.456 19.5039C24.3944 19.6762 24.2719 19.8199 24.1115 19.908C23.8095 20.074 16.6565 24 13.4995 24Z" fill="#2F95DB"/>
<path d="M17 19.8399C16.8011 19.8399 16.6104 19.7609 16.4697 19.6202C16.329 19.4796 16.25 19.2888 16.25 19.0899V18.6399C16.25 18.0489 15.829 17.5339 15.25 17.4139L5.62003 15.4439C5.5215 15.4263 5.4275 15.3891 5.34355 15.3346C5.2596 15.2801 5.18741 15.2094 5.13124 15.1265C5.07506 15.0437 5.03603 14.9505 5.01645 14.8523C4.99687 14.7541 4.99713 14.6531 5.01722 14.555C5.03731 14.457 5.07682 14.3639 5.13343 14.2814C5.19003 14.1988 5.26259 14.1285 5.34682 14.0744C5.43105 14.0203 5.52524 13.9837 5.62386 13.9666C5.72248 13.9495 5.82352 13.9523 5.92103 13.9749L15.551 15.9449C16.1711 16.0735 16.728 16.4114 17.1286 16.9019C17.5291 17.3924 17.7489 18.0056 17.751 18.6389V19.0889C17.7508 19.288 17.6716 19.4788 17.5308 19.6196C17.39 19.7604 17.1991 19.8396 17 19.8399Z" fill="#2F95DB"/>
</g>
<defs>
<clipPath id="clip0_11_11951">
<rect width="24" height="24" fill="white" transform="translate(0.5)"/>
</clipPath>
</defs>
</svg>
