<svg width="25" height="24" viewBox="0 0 25 24" fill="none" xmlns="http://www.w3.org/2000/svg">
<g clip-path="url(#clip0_11_13882)">
<path fill-rule="evenodd" clip-rule="evenodd" d="M0.5 11.9998C0.5 11.5421 0.879535 11.1626 1.33721 11.1626H23.6628C24.1205 11.1626 24.5 11.5421 24.5 11.9998C24.5 12.4575 24.1205 12.837 23.6628 12.837H1.33721C0.879535 12.837 0.5 12.4575 0.5 11.9998Z" fill="#2F95DB"/>
<path fill-rule="evenodd" clip-rule="evenodd" d="M12.5 1.67442C6.79581 1.67442 2.17442 6.29581 2.17442 12C2.17442 17.7042 6.79581 22.3256 12.5 22.3256C18.2042 22.3256 22.8256 17.7042 22.8256 12C22.8256 6.29581 18.2042 1.67442 12.5 1.67442ZM0.5 12C0.5 5.3693 5.8693 0 12.5 0C19.1307 0 24.5 5.3693 24.5 12C24.5 18.6307 19.1307 24 12.5 24C5.8693 24 0.5 18.6307 0.5 12Z" fill="#2F95DB"/>
<path fill-rule="evenodd" clip-rule="evenodd" d="M5.12139 3.59424C6.99674 5.50308 9.60883 6.69749 12.5 6.69749C15.3912 6.69749 18.0033 5.51424 19.8786 3.59424L21.073 4.76633C18.8963 6.98773 15.86 8.36075 12.5 8.36075C9.14 8.36075 6.10372 6.97656 3.92697 4.76633L5.12139 3.59424ZM12.5 17.3021C9.60883 17.3021 6.99674 18.4854 5.12139 20.3942L3.92697 19.2221C6.10372 17.0007 9.14 15.6166 12.5 15.6166C15.86 15.6166 18.8963 17.0007 21.073 19.2221L19.8786 20.3942C18.9168 19.4132 17.7686 18.6343 16.5014 18.1033C15.2343 17.5723 13.8739 17.2999 12.5 17.3021Z" fill="#2F95DB"/>
<path fill-rule="evenodd" clip-rule="evenodd" d="M10.1219 4.42047C9.36285 6.31814 8.87168 8.99721 8.87168 12C8.87168 15.0028 9.36285 17.6819 10.1219 19.5795C10.5015 20.5284 10.9368 21.2428 11.3721 21.7116C11.8075 22.1693 12.187 22.3256 12.4996 22.3256C12.8121 22.3256 13.1917 22.1693 13.627 21.7116C14.0624 21.254 14.4977 20.5395 14.8773 19.5795C15.6363 17.6819 16.1275 15.0028 16.1275 12C16.1275 8.99721 15.6363 6.31814 14.8773 4.42047C14.4977 3.47163 14.0624 2.75721 13.627 2.28837C13.1917 1.8307 12.8121 1.67442 12.4996 1.67442C12.187 1.67442 11.8075 1.8307 11.3721 2.28837C10.9368 2.74605 10.5015 3.46047 10.1219 4.42047ZM10.1554 1.1386C10.7917 0.468837 11.5842 0 12.4996 0C13.4149 0 14.2075 0.468837 14.8438 1.1386C15.4801 1.80837 16.0047 2.72372 16.4289 3.79535C17.2884 5.9386 17.8019 8.84093 17.8019 12C17.8019 15.1591 17.2884 18.0614 16.4289 20.2047C16.0047 21.2763 15.4689 22.1916 14.8438 22.8614C14.2075 23.5312 13.4149 24 12.4996 24C11.5842 24 10.7917 23.5312 10.1554 22.8614C9.51913 22.1916 8.99448 21.2763 8.57029 20.2047C7.71075 18.0614 7.19727 15.1591 7.19727 12C7.19727 8.84093 7.71075 5.9386 8.57029 3.79535C8.99448 2.72372 9.53029 1.80837 10.1554 1.1386Z" fill="#2F95DB"/>
</g>
<defs>
<clipPath id="clip0_11_13882">
<rect width="24" height="24" fill="white" transform="translate(0.5)"/>
</clipPath>
</defs>
</svg>
