<svg width="24" height="24" viewBox="0 0 24 24" fill="none" xmlns="http://www.w3.org/2000/svg">
<path d="M12 17C8.141 17 5 13.86 5 10C5 6.14 8.141 3 12 3C15.859 3 19 6.14 19 10C19 13.86 15.859 17 12 17ZM12 4.5C8.968 4.5 6.5 6.967 6.5 10C6.5 13.033 8.968 15.5 12 15.5C15.032 15.5 17.5 13.033 17.5 10C17.5 6.967 15.032 4.5 12 4.5Z" fill="#2F95DB"/>
<path d="M12 19.9939C10.687 19.9962 9.38655 19.7391 8.17326 19.2373C6.95997 18.7355 5.85777 17.999 4.92999 17.0699C3.99859 16.1437 3.26021 15.0419 2.7576 13.8283C2.255 12.6147 1.99818 11.3135 2.002 9.99992C1.99818 8.68638 2.255 7.38513 2.7576 6.17155C3.26021 4.95796 3.99859 3.85614 4.92999 2.92992C5.98169 1.8685 7.2624 1.0619 8.674 0.571921C8.76716 0.539095 8.86589 0.524996 8.96452 0.530434C9.06315 0.535873 9.15974 0.560741 9.24873 0.603611C9.33772 0.646481 9.41737 0.706508 9.4831 0.780246C9.54883 0.853984 9.59934 0.939979 9.63174 1.03329C9.66414 1.12661 9.67779 1.22541 9.6719 1.32401C9.66601 1.42261 9.6407 1.51908 9.59742 1.60788C9.55415 1.69667 9.49376 1.77605 9.41972 1.84144C9.34568 1.90683 9.25946 1.95695 9.166 1.98892C7.9688 2.40543 6.88252 3.08983 5.98999 3.98992C4.38599 5.59492 3.502 7.72892 3.502 9.99992C3.502 12.2709 4.38599 14.4049 5.98999 16.0099C9.30399 19.3229 14.695 19.3229 18.01 16.0099C18.0797 15.9403 18.1624 15.885 18.2534 15.8473C18.3444 15.8096 18.442 15.7902 18.5405 15.7902C18.639 15.7902 18.7366 15.8096 18.8276 15.8473C18.9186 15.885 19.0013 15.9403 19.071 16.0099C19.1407 16.0796 19.1959 16.1623 19.2336 16.2533C19.2713 16.3443 19.2907 16.4419 19.2907 16.5404C19.2907 16.6389 19.2713 16.7365 19.2336 16.8275C19.1959 16.9185 19.1407 17.0013 19.071 17.0709C18.1429 17.9998 17.0405 18.7361 15.8271 19.2377C14.6136 19.7393 13.313 19.9963 12 19.9939Z" fill="#2F95DB"/>
<path d="M6.73043 13.0397H6.19043V11.5397H6.73043C6.96869 11.5396 7.19754 11.4467 7.36843 11.2807C7.53057 11.1115 7.62396 10.888 7.63043 10.6537C7.63043 10.0917 7.82443 9.55272 8.19343 9.10972C8.54343 8.67272 9.04743 8.36472 9.60343 8.25472C9.9274 8.18207 10.2172 8.00168 10.4253 7.74302C10.6335 7.48436 10.7477 7.16273 10.7494 6.83072V6.23072C10.7494 5.57672 10.4634 4.95172 9.96543 4.51472L10.9534 3.38672C11.3595 3.74116 11.6852 4.17824 11.9087 4.66871C12.1322 5.15918 12.2484 5.69173 12.2494 6.23072V6.83072C12.2494 8.21372 11.2654 9.43072 9.90743 9.72372C9.68876 9.76585 9.49231 9.88464 9.35343 10.0587C9.20798 10.2289 9.1288 10.4458 9.13043 10.6697C9.1171 11.2955 8.86652 11.8928 8.42943 12.3407C7.97699 12.788 7.36663 13.0391 6.73043 13.0397ZM12.0404 16.6957L11.2204 15.6957C10.6872 15.0396 10.4154 14.2094 10.4575 13.365C10.4996 12.5206 10.8526 11.7215 11.4484 11.1217C12.3184 10.2527 13.6144 9.95872 14.8274 10.4187L15.1634 10.5547C15.4364 10.6627 15.7594 10.5647 15.9354 10.3097C16.3884 9.60672 17.4554 9.35572 18.2184 9.78572L18.6044 10.0147L17.8364 11.3037L17.4664 11.0837C17.4044 11.0487 17.2404 11.0517 17.1814 11.1457C16.5894 11.9937 15.5384 12.3137 14.6064 11.9467L14.2784 11.8137C13.9798 11.6993 13.6547 11.6729 13.3415 11.7376C13.0283 11.8023 12.7403 11.9554 12.5114 12.1787C12.1773 12.5157 11.9794 12.9643 11.9558 13.4382C11.9322 13.9122 12.0845 14.3782 12.3834 14.7467L13.2004 15.7437L12.0404 16.6957ZM16.4204 8.93972C15.9397 8.93998 15.467 8.81602 15.0483 8.57984C14.6295 8.34366 14.2789 8.00328 14.0304 7.59172C13.3833 6.50653 13.1862 5.21126 13.4814 3.98272L14.9384 4.33672C14.7363 5.18236 14.8719 6.07348 15.3164 6.82072C15.5804 7.25072 16.0814 7.48372 16.5804 7.42572L17.8414 7.27472L18.0194 8.76372L16.7694 8.91372C16.6538 8.92968 16.5372 8.93836 16.4204 8.93972ZM12.0004 23.9997C11.8015 23.9997 11.6108 23.9207 11.4701 23.78C11.3294 23.6394 11.2504 23.4486 11.2504 23.2497V19.4997C11.2504 19.3008 11.3294 19.11 11.4701 18.9694C11.6108 18.8287 11.8015 18.7497 12.0004 18.7497C12.1993 18.7497 12.3901 18.8287 12.5308 18.9694C12.6714 19.11 12.7504 19.3008 12.7504 19.4997V23.2497C12.7504 23.4486 12.6714 23.6394 12.5308 23.78C12.3901 23.9207 12.1993 23.9997 12.0004 23.9997Z" fill="#2F95DB"/>
<path d="M14.25 24H9.75C9.55109 24 9.36032 23.921 9.21967 23.7803C9.07902 23.6397 9 23.4489 9 23.25C9 23.0511 9.07902 22.8603 9.21967 22.7197C9.36032 22.579 9.55109 22.5 9.75 22.5H14.25C14.4489 22.5 14.6397 22.579 14.7803 22.7197C14.921 22.8603 15 23.0511 15 23.25C15 23.4489 14.921 23.6397 14.7803 23.7803C14.6397 23.921 14.4489 24 14.25 24Z" fill="#2F95DB"/>
</svg>
