<svg width="180" height="24" viewBox="0 0 180 24" fill="none" xmlns="http://www.w3.org/2000/svg">
<path d="M12.1991 5.83213L24.4138 12.8121V6.9877L12.1913 0L0 6.99545V12.8276L12.1991 5.83213Z" fill="#2892DA"/>
<path d="M22.4601 19.8621L24.4138 18.7341V15.1969L12.1913 8.27588L0 15.1969V18.7495L1.95373 19.8621L12.1913 14.046L22.4601 19.8621Z" fill="#2892DA"/>
<path d="M12.199 22.2613L15.2556 24L20.2756 21.1528L12.1913 16.5518L4.1377 21.1528L9.1577 24L12.199 22.2613Z" fill="#2892DA"/>
<path d="M34.8283 17.4863V7.08331H38.8953C40.4936 7.08331 41.4782 7.44006 42.1918 8.28201C43.0052 9.26666 43.4475 10.6651 43.4475 12.2777C43.4475 13.9045 43.0052 15.303 42.1918 16.2734C41.4782 17.1153 40.4793 17.4863 38.8953 17.4863H34.8283ZM36.9688 15.7025H38.8953C40.5079 15.7025 41.307 14.5752 41.307 12.292C41.307 9.99444 40.5079 8.86709 38.8953 8.86709H36.9688V15.7025ZM48.2949 13.0055V15.7025H53.9316V17.4863H46.1543V7.08331H53.6747V8.86709H48.2949V11.2217H53.2752V13.0055H48.2949ZM56.6428 17.4863V7.08331H60.7099C62.3081 7.08331 63.2928 7.44006 64.0063 8.28201C64.8197 9.26666 65.2621 10.6651 65.2621 12.2777C65.2621 13.9045 64.8197 15.303 64.0063 16.2734C63.2928 17.1153 62.2939 17.4863 60.7099 17.4863H56.6428ZM58.7834 15.7025H60.7099C62.3224 15.7025 63.1215 14.5752 63.1215 12.292C63.1215 9.99444 62.3224 8.86709 60.7099 8.86709H58.7834V15.7025ZM69.8811 7.08331V17.4863H67.7405V7.08331H69.8811ZM81.5445 10.6081H79.5038C79.2184 9.33801 78.5192 8.73866 77.2776 8.73866C75.5938 8.73866 74.5806 10.1086 74.5806 12.4061C74.5806 14.6751 75.5509 16.0165 77.2063 16.0165C78.5334 16.0165 79.3611 15.2602 79.5038 13.933H81.5873C81.4588 16.3162 79.7464 17.8145 77.1492 17.8145C74.2523 17.8145 72.44 15.7311 72.44 12.3776C72.44 9.00979 74.2666 6.91206 77.2063 6.91206C78.7618 6.91206 80.0461 7.49714 80.8452 8.55314C81.2876 9.13823 81.4731 9.70904 81.5445 10.6081ZM89.8409 15.3886H85.9452L85.2459 17.4863H83.0626L86.7586 7.08331H89.1274L92.7235 17.4863H90.5259L89.8409 15.3886ZM89.2559 13.6048L87.9002 9.53779L86.5445 13.6048H89.2559ZM98.3264 8.86709V17.4863H96.1859V8.86709H93.0321V7.08331H101.366V8.86709H98.3264ZM105.711 13.0055V15.7025H111.348V17.4863H103.571V7.08331H111.091V8.86709H105.711V11.2217H110.692V13.0055H105.711ZM114.059 17.4863V7.08331H118.126C119.725 7.08331 120.709 7.44006 121.423 8.28201C122.236 9.26666 122.679 10.6651 122.679 12.2777C122.679 13.9045 122.236 15.303 121.423 16.2734C120.709 17.1153 119.71 17.4863 118.126 17.4863H114.059ZM116.2 15.7025H118.126C119.739 15.7025 120.538 14.5752 120.538 12.292C120.538 9.99444 119.739 8.86709 118.126 8.86709H116.2V15.7025ZM131.55 17.4863L127.369 10.2941V17.4863H125.229V7.08331H127.426L131.55 14.1614V7.08331H133.691V17.4863H131.55ZM141.205 6.91206C142.717 6.91206 143.859 7.36871 144.772 8.35336C145.7 9.33801 146.228 10.8078 146.228 12.4347C146.228 13.9045 145.671 15.4171 144.772 16.3732C143.873 17.3436 142.703 17.8145 141.219 17.8145C139.735 17.8145 138.565 17.3436 137.666 16.3732C136.738 15.3886 136.21 13.9188 136.21 12.3633C136.21 10.8078 136.738 9.35228 137.666 8.35336C138.55 7.39725 139.749 6.91206 141.205 6.91206ZM141.219 8.73866C139.478 8.73866 138.351 10.1657 138.351 12.3633C138.351 14.5609 139.478 15.988 141.219 15.988C142.931 15.988 144.087 14.5609 144.087 12.4204C144.087 10.1657 142.974 8.73866 141.219 8.73866ZM148.844 17.4863V7.08331H152.911C154.509 7.08331 155.494 7.44006 156.207 8.28201C157.021 9.26666 157.463 10.6651 157.463 12.2777C157.463 13.9045 157.021 15.303 156.207 16.2734C155.494 17.1153 154.495 17.4863 152.911 17.4863H148.844ZM150.984 15.7025H152.911C154.523 15.7025 155.322 14.5752 155.322 12.292C155.322 9.99444 154.523 8.86709 152.911 8.86709H150.984V15.7025ZM162.31 13.0055V15.7025H167.947V17.4863H160.17V7.08331H167.69V8.86709H162.31V11.2217H167.291V13.0055H162.31ZM178.194 10.2513H176.196C176.125 9.19531 175.368 8.6245 174.013 8.6245C172.899 8.6245 172.214 9.12395 172.214 9.90882C172.214 10.6651 172.657 10.9648 174.184 11.2645L175.811 11.5784C177.737 11.9495 178.565 12.8057 178.565 14.4468C178.565 16.573 176.981 17.8145 174.298 17.8145C171.644 17.8145 170.117 16.6016 169.988 14.3754H172.072C172.143 15.4885 172.957 16.1021 174.412 16.1021C175.711 16.1021 176.51 15.5741 176.51 14.7036C176.51 13.8617 175.982 13.4621 174.555 13.191L173.099 12.9056C170.987 12.506 170.174 11.7211 170.174 10.1086C170.174 8.08223 171.615 6.91206 174.112 6.91206C176.738 6.91206 178.179 8.0965 178.194 10.2513Z" fill="black"/>
</svg>
