<svg width="24" height="24" viewBox="0 0 24 24" fill="none" xmlns="http://www.w3.org/2000/svg">
<g clip-path="url(#clip0_11_11993)">
<path d="M12 11C12.8284 11 13.5 10.3284 13.5 9.5C13.5 8.67157 12.8284 8 12 8C11.1716 8 10.5 8.67157 10.5 9.5C10.5 10.3284 11.1716 11 12 11Z" fill="#2F95DB"/>
<path d="M14.25 15C14.0511 15 13.8603 14.921 13.7197 14.7803C13.579 14.6397 13.5 14.4489 13.5 14.25C13.5 14.0511 13.421 13.8603 13.2803 13.7197C13.1397 13.579 12.9489 13.5 12.75 13.5H11.25C11.0511 13.5 10.8603 13.579 10.7197 13.7197C10.579 13.8603 10.5 14.0511 10.5 14.25C10.5 14.4489 10.421 14.6397 10.2803 14.7803C10.1397 14.921 9.94891 15 9.75 15C9.55109 15 9.36032 14.921 9.21967 14.7803C9.07902 14.6397 9 14.4489 9 14.25C9 13.009 10.01 12 11.25 12H12.75C13.99 12 15 13.009 15 14.25C15 14.4489 14.921 14.6397 14.7803 14.7803C14.6397 14.921 14.4489 15 14.25 15Z" fill="#2F95DB"/>
<path d="M12 19C8.141 19 5 15.86 5 12C5 8.14 8.141 5 12 5C15.859 5 19 8.14 19 12C19 15.86 15.859 19 12 19ZM12 6.5C8.968 6.5 6.5 8.967 6.5 12C6.5 15.033 8.968 17.5 12 17.5C15.032 17.5 17.5 15.033 17.5 12C17.5 8.967 15.032 6.5 12 6.5Z" fill="#2F95DB"/>
<path d="M20.0895 20.8399C19.991 20.8402 19.8934 20.8208 19.8025 20.7831C19.7115 20.7453 19.6289 20.6899 19.5595 20.6199L16.0695 17.1299C15.9999 17.0603 15.9446 16.9775 15.9069 16.8865C15.8692 16.7955 15.8498 16.6979 15.8498 16.5994C15.8498 16.5009 15.8692 16.4033 15.9069 16.3123C15.9446 16.2213 15.9999 16.1386 16.0695 16.0689C16.1392 15.9993 16.2219 15.944 16.3129 15.9063C16.4039 15.8686 16.5015 15.8492 16.6 15.8492C16.6985 15.8492 16.7961 15.8686 16.8871 15.9063C16.9781 15.944 17.0609 15.9993 17.1305 16.0689L20.6205 19.5589C20.7257 19.6638 20.7973 19.7976 20.8264 19.9432C20.8554 20.0889 20.8406 20.2399 20.7837 20.3771C20.7268 20.5143 20.6305 20.6316 20.5069 20.714C20.3833 20.7963 20.2381 20.8402 20.0895 20.8399ZM7.39952 8.14992C7.30101 8.15016 7.20344 8.13084 7.11246 8.09307C7.02148 8.05531 6.9389 7.99985 6.86952 7.92992L3.37952 4.43992C3.30985 4.37025 3.25459 4.28755 3.21689 4.19652C3.17919 4.1055 3.15978 4.00794 3.15978 3.90942C3.15978 3.8109 3.17919 3.71334 3.21689 3.62232C3.25459 3.53129 3.30985 3.44859 3.37952 3.37892C3.44919 3.30925 3.53189 3.25399 3.62292 3.21629C3.71394 3.17859 3.8115 3.15918 3.91002 3.15918C4.00854 3.15918 4.1061 3.17859 4.19713 3.21629C4.28815 3.25399 4.37085 3.30925 4.44052 3.37892L7.93052 6.86892C8.03568 6.97381 8.10733 7.10757 8.13638 7.25323C8.16543 7.3989 8.15057 7.5499 8.0937 7.68711C8.03682 7.82432 7.94048 7.94156 7.8169 8.02395C7.69332 8.10634 7.54805 8.15019 7.39952 8.14992ZM16.5995 8.14992C16.4511 8.14999 16.3059 8.106 16.1825 8.02353C16.0591 7.94106 15.9629 7.82382 15.9062 7.68665C15.8494 7.54948 15.8346 7.39856 15.8637 7.25299C15.8928 7.10742 15.9644 6.97375 16.0695 6.86892L19.5595 3.37892C19.6292 3.30925 19.7119 3.25399 19.8029 3.21629C19.8939 3.17859 19.9915 3.15918 20.09 3.15918C20.1885 3.15918 20.2861 3.17859 20.3771 3.21629C20.4681 3.25399 20.5509 3.30925 20.6205 3.37892C20.6902 3.44859 20.7455 3.53129 20.7832 3.62232C20.8209 3.71334 20.8403 3.8109 20.8403 3.90942C20.8403 4.00794 20.8209 4.1055 20.7832 4.19652C20.7455 4.28755 20.6902 4.37025 20.6205 4.43992L17.1305 7.92992C17.0608 7.9997 16.978 8.05505 16.8869 8.0928C16.7958 8.13056 16.6981 8.14996 16.5995 8.14992ZM3.90952 20.8399C3.76108 20.84 3.61595 20.796 3.49252 20.7135C3.36909 20.6311 3.27291 20.5138 3.21615 20.3767C3.1594 20.2395 3.14463 20.0886 3.17371 19.943C3.2028 19.7974 3.27442 19.6638 3.37952 19.5589L6.86952 16.0689C6.93919 15.9993 7.02189 15.944 7.11292 15.9063C7.20394 15.8686 7.3015 15.8492 7.40002 15.8492C7.49854 15.8492 7.5961 15.8686 7.68713 15.9063C7.77815 15.944 7.86085 15.9993 7.93052 16.0689C8.00019 16.1386 8.05545 16.2213 8.09315 16.3123C8.13086 16.4033 8.15026 16.5009 8.15026 16.5994C8.15026 16.6979 8.13086 16.7955 8.09315 16.8865C8.05545 16.9775 8.00019 17.0603 7.93052 17.1299L4.44052 20.6199C4.37096 20.6899 4.28821 20.7453 4.19706 20.7831C4.10591 20.8209 4.00818 20.8402 3.90952 20.8399Z" fill="#2F95DB"/>
<path d="M2.5 24C1.121 24 0 22.878 0 21.5C0 20.122 1.121 19 2.5 19C3.879 19 5 20.122 5 21.5C5 22.878 3.879 24 2.5 24ZM2.5 20.5C2.24252 20.5115 1.99941 20.6219 1.82128 20.8082C1.64315 20.9945 1.54373 21.2423 1.54373 21.5C1.54373 21.7577 1.64315 22.0055 1.82128 22.1918C1.99941 22.3781 2.24252 22.4885 2.5 22.5C2.75748 22.4885 3.00059 22.3781 3.17872 22.1918C3.35685 22.0055 3.45627 21.7577 3.45627 21.5C3.45627 21.2423 3.35685 20.9945 3.17872 20.8082C3.00059 20.6219 2.75748 20.5115 2.5 20.5ZM2.5 5C1.121 5 0 3.878 0 2.5C0 1.122 1.121 0 2.5 0C3.879 0 5 1.122 5 2.5C5 3.878 3.879 5 2.5 5ZM2.5 1.5C2.24252 1.51152 1.99941 1.62191 1.82128 1.80818C1.64315 1.99446 1.54373 2.24226 1.54373 2.5C1.54373 2.75774 1.64315 3.00554 1.82128 3.19182C1.99941 3.37809 2.24252 3.48848 2.5 3.5C2.75748 3.48848 3.00059 3.37809 3.17872 3.19182C3.35685 3.00554 3.45627 2.75774 3.45627 2.5C3.45627 2.24226 3.35685 1.99446 3.17872 1.80818C3.00059 1.62191 2.75748 1.51152 2.5 1.5ZM21.5 5C20.121 5 19 3.878 19 2.5C19 1.122 20.121 0 21.5 0C22.879 0 24 1.122 24 2.5C24 3.878 22.879 5 21.5 5ZM21.5 1.5C21.2425 1.51152 20.9994 1.62191 20.8213 1.80818C20.6431 1.99446 20.5437 2.24226 20.5437 2.5C20.5437 2.75774 20.6431 3.00554 20.8213 3.19182C20.9994 3.37809 21.2425 3.48848 21.5 3.5C21.7575 3.48848 22.0006 3.37809 22.1787 3.19182C22.3569 3.00554 22.4563 2.75774 22.4563 2.5C22.4563 2.24226 22.3569 1.99446 22.1787 1.80818C22.0006 1.62191 21.7575 1.51152 21.5 1.5ZM21.5 24C20.121 24 19 22.878 19 21.5C19 20.122 20.121 19 21.5 19C22.879 19 24 20.122 24 21.5C24 22.878 22.879 24 21.5 24ZM21.5 20.5C21.2425 20.5115 20.9994 20.6219 20.8213 20.8082C20.6431 20.9945 20.5437 21.2423 20.5437 21.5C20.5437 21.7577 20.6431 22.0055 20.8213 22.1918C20.9994 22.3781 21.2425 22.4885 21.5 22.5C21.7575 22.4885 22.0006 22.3781 22.1787 22.1918C22.3569 22.0055 22.4563 21.7577 22.4563 21.5C22.4563 21.2423 22.3569 20.9945 22.1787 20.8082C22.0006 20.6219 21.7575 20.5115 21.5 20.5Z" fill="#2F95DB"/>
</g>
<defs>
<clipPath id="clip0_11_11993">
<rect width="24" height="24" fill="white"/>
</clipPath>
</defs>
</svg>
