<svg width="25" height="24" viewBox="0 0 25 24" fill="none" xmlns="http://www.w3.org/2000/svg">
<g clip-path="url(#clip0_11_15881)">
<path d="M21.7501 11.5742C21.6787 11.5741 21.6077 11.564 21.5391 11.5442L11.0391 8.47017C10.8836 8.42441 10.7471 8.32956 10.6499 8.19978C10.5528 8.07001 10.5002 7.91228 10.5001 7.75017V6.25017C10.5002 6.08721 10.5533 5.92869 10.6514 5.7986C10.7496 5.66851 10.8874 5.57393 11.0441 5.52917L21.5441 2.52917C21.6557 2.49708 21.7733 2.49137 21.8875 2.51252C22.0017 2.53366 22.1094 2.58107 22.2021 2.651C22.2948 2.72093 22.37 2.81147 22.4218 2.91546C22.4735 3.01944 22.5003 3.13403 22.5001 3.25017V10.8242C22.5001 11.0231 22.4211 11.2139 22.2805 11.3545C22.1398 11.4952 21.949 11.5742 21.7501 11.5742ZM12.0001 7.18817L21.0001 9.82317V4.24417L12.0001 6.81517V7.18817Z" fill="#2F95DB"/>
<path d="M21.7501 12C21.5512 12 21.3604 11.921 21.2198 11.7803C21.0791 11.6397 21.0001 11.4489 21.0001 11.25V2.75C21.0001 2.55109 21.0791 2.36032 21.2198 2.21967C21.3604 2.07902 21.5512 2 21.7501 2C21.949 2 22.1398 2.07902 22.2805 2.21967C22.4211 2.36032 22.5001 2.55109 22.5001 2.75V11.25C22.5001 11.4489 22.4211 11.6397 22.2805 11.7803C22.1398 11.921 21.949 12 21.7501 12ZM11.2501 9C11.0512 9 10.8604 8.92098 10.7198 8.78033C10.5791 8.63968 10.5001 8.44891 10.5001 8.25V5.75C10.5001 5.55109 10.5791 5.36032 10.7198 5.21967C10.8604 5.07902 11.0512 5 11.2501 5C11.449 5 11.6398 5.07902 11.7805 5.21967C11.9211 5.36032 12.0001 5.55109 12.0001 5.75V8.25C12.0001 8.44891 11.9211 8.63968 11.7805 8.78033C11.6398 8.92098 11.449 9 11.2501 9ZM14.7501 12.05C13.5101 12.05 12.5001 11.04 12.5001 9.8C12.5001 9.012 12.9151 8.28 13.5831 7.892C13.7546 7.79876 13.9556 7.77602 14.1436 7.82862C14.3315 7.88122 14.4916 8.00501 14.5897 8.17371C14.6879 8.34241 14.7164 8.54272 14.6692 8.73211C14.6221 8.92149 14.5029 9.08503 14.3371 9.188C14.232 9.25125 14.1455 9.34118 14.0863 9.44865C14.0271 9.55613 13.9974 9.67734 14.0001 9.8C14.0001 10.213 14.3371 10.55 14.7501 10.55C15.1631 10.55 15.5001 10.213 15.5001 9.8C15.5022 9.70325 15.4806 9.60745 15.4371 9.521C15.3548 9.3463 15.343 9.14663 15.4041 8.96344C15.4652 8.78025 15.5945 8.62763 15.7652 8.53728C15.9358 8.44693 16.1347 8.42579 16.3206 8.47825C16.5064 8.53071 16.6649 8.65275 16.7631 8.819C16.9201 9.117 17.0001 9.447 17.0001 9.8C17.0001 11.04 15.9901 12.05 14.7501 12.05ZM4.00012 22H1.25012C1.05121 22 0.860444 21.921 0.719792 21.7803C0.57914 21.6397 0.500122 21.4489 0.500122 21.25V12.75C0.500122 12.5511 0.57914 12.3603 0.719792 12.2197C0.860444 12.079 1.05121 12 1.25012 12C4.75612 12 6.38812 13.217 6.45512 13.269C6.57355 13.3594 6.66237 13.483 6.71028 13.624C6.75819 13.7651 6.76301 13.9172 6.72412 14.061L4.72412 21.447C4.68087 21.6059 4.58655 21.7461 4.45571 21.846C4.32486 21.946 4.16477 22.0001 4.00012 22ZM2.00012 20.5H3.42612L5.12412 14.229C4.60112 13.982 3.57912 13.614 2.00012 13.522V20.5Z" fill="#2F95DB"/>
<path d="M13.5002 24C11.0912 24 6.48916 22 3.96116 20.809C3.87106 20.7677 3.79004 20.7089 3.72279 20.6361C3.65554 20.5632 3.60339 20.4778 3.56937 20.3847C3.53534 20.2916 3.52011 20.1927 3.52456 20.0936C3.529 19.9946 3.55304 19.8974 3.59527 19.8078C3.6375 19.7181 3.69709 19.6376 3.7706 19.5711C3.8441 19.5046 3.93006 19.4533 4.02351 19.4203C4.11696 19.3872 4.21603 19.373 4.31501 19.3784C4.41399 19.3838 4.51091 19.4089 4.60016 19.452C8.71016 21.389 11.9542 22.5 13.5002 22.5C15.5282 22.5 20.1322 20.31 22.5452 19.046C22.2672 18.887 21.8532 18.75 21.2502 18.75C20.3722 18.75 19.2862 19.111 18.2372 19.462C17.0742 19.85 15.8722 20.25 14.7502 20.25C12.6432 20.25 9.86116 19.247 9.74416 19.205C9.55719 19.1371 9.40484 18.9977 9.32063 18.8175C9.23643 18.6373 9.22727 18.431 9.29516 18.244C9.36306 18.057 9.50245 17.9047 9.68267 17.8205C9.8629 17.7363 10.0692 17.7271 10.2562 17.795C10.2822 17.805 12.9082 18.75 14.7502 18.75C15.6282 18.75 16.7142 18.389 17.7632 18.038C18.9262 17.65 20.1282 17.25 21.2502 17.25C23.7292 17.25 24.4182 18.901 24.4462 18.972C24.514 19.1418 24.5175 19.3305 24.456 19.5027C24.3945 19.6749 24.2722 19.8186 24.1122 19.907C23.8102 20.074 16.6572 24 13.5002 24Z" fill="#2F95DB"/>
<path d="M16.9992 19.8401C16.8002 19.8401 16.6095 19.7611 16.4688 19.6204C16.3282 19.4798 16.2492 19.289 16.2492 19.0901V18.6401C16.2492 18.0491 15.8282 17.5341 15.2492 17.4141L5.61816 15.4441C5.42757 15.4 5.26175 15.2831 5.15607 15.1185C5.0504 14.9539 5.01323 14.7545 5.0525 14.5628C5.09177 14.3712 5.20436 14.2025 5.36627 14.0927C5.52818 13.9829 5.72658 13.9407 5.91916 13.9751L15.5502 15.9451C16.1701 16.0738 16.7269 16.4117 17.1273 16.9022C17.5277 17.3927 17.7472 18.0059 17.7492 18.6391V19.0891C17.7493 19.1877 17.73 19.2853 17.6924 19.3764C17.6547 19.4675 17.5995 19.5503 17.5298 19.6201C17.4602 19.6898 17.3775 19.7451 17.2864 19.7829C17.1953 19.8206 17.0977 19.8401 16.9992 19.8401Z" fill="#2F95DB"/>
</g>
<defs>
<clipPath id="clip0_11_15881">
<rect width="24" height="24" fill="white" transform="translate(0.500122)"/>
</clipPath>
</defs>
</svg>
