<svg width="24" height="24" viewBox="0 0 24 24" fill="none" xmlns="http://www.w3.org/2000/svg">
<g clip-path="url(#clip0_11_13914)">
<path d="M17.5 20C16.121 20 15 18.878 15 17.5C15 16.122 16.121 15 17.5 15C18.879 15 20 16.122 20 17.5C20 18.878 18.879 20 17.5 20ZM17.5 16.5C17.2425 16.5115 16.9994 16.6219 16.8213 16.8082C16.6431 16.9945 16.5437 17.2423 16.5437 17.5C16.5437 17.7577 16.6431 18.0055 16.8213 18.1918C16.9994 18.3781 17.2425 18.4885 17.5 18.5C17.7575 18.4885 18.0006 18.3781 18.1787 18.1918C18.3569 18.0055 18.4563 17.7577 18.4563 17.5C18.4563 17.2423 18.3569 16.9945 18.1787 16.8082C18.0006 16.6219 17.7575 16.5115 17.5 16.5Z" fill="#2F95DB"/>
<path d="M18.3094 24.0001H16.6894C16.3815 24.0034 16.0832 23.8926 15.852 23.6892C15.6209 23.4857 15.4732 23.2039 15.4374 22.8981L15.3264 21.8401C15.0909 21.7325 14.8639 21.6071 14.6474 21.4651L13.5694 21.9241C13.2902 22.0437 12.9775 22.0596 12.6877 21.9691C12.3978 21.8785 12.1498 21.6873 11.9884 21.4301L11.1774 20.1041C11.0144 19.8366 10.9611 19.5166 11.0286 19.2108C11.096 18.905 11.2791 18.6371 11.5394 18.4631L12.4484 17.8461C12.4384 17.7361 12.4314 17.6191 12.4314 17.5001C12.4314 17.3811 12.4384 17.2641 12.4484 17.1541L11.5394 16.5361C11.2788 16.362 11.0956 16.0938 11.0283 15.7877C10.961 15.4816 11.0148 15.1614 11.1784 14.8941L11.9874 13.5711C12.1493 13.3138 12.3976 13.1226 12.6877 13.0319C12.9778 12.9412 13.2908 12.9568 13.5704 13.0761L14.6474 13.5341C14.8644 13.3911 15.0904 13.2661 15.3264 13.1591L15.4374 12.1021C15.4734 11.7963 15.6212 11.5146 15.8523 11.3112C16.0834 11.1078 16.3815 10.997 16.6894 11.0001H18.3084C18.9544 11.0001 19.4924 11.4741 19.5604 12.1021L19.6714 13.1601C19.9064 13.2671 20.1334 13.3931 20.3504 13.5351L21.4284 13.0761C21.7075 12.956 22.0203 12.9398 22.3103 13.0305C22.6003 13.1211 22.8483 13.3125 23.0094 13.5701L23.8204 14.8951C24.1594 15.4471 24.0004 16.1681 23.4584 16.5361L22.5494 17.1531C22.5594 17.2631 22.5664 17.3801 22.5664 17.4991C22.5664 17.6181 22.5594 17.7351 22.5494 17.8451L23.4584 18.4631C24.0014 18.8301 24.1594 19.5521 23.8194 20.1051L23.0104 21.4281C22.8491 21.686 22.6008 21.8777 22.3105 21.9684C22.0201 22.0592 21.7069 22.0431 21.4274 21.9231L20.3504 21.4651C20.1343 21.6077 19.9072 21.7331 19.6714 21.8401L19.5604 22.8971C19.5251 23.203 19.3777 23.485 19.1467 23.6887C18.9156 23.8924 18.6174 24.0033 18.3094 24.0001ZM16.9044 22.5001H18.0934L18.2274 21.2341C18.2428 21.0924 18.298 20.958 18.3867 20.8465C18.4753 20.735 18.5938 20.6509 18.7284 20.6041C19.1129 20.4713 19.472 20.2742 19.7904 20.0211C19.8961 19.9372 20.0226 19.8834 20.1564 19.8654C20.2901 19.8475 20.4263 19.866 20.5504 19.9191L21.8404 20.4681L22.3984 19.5561L21.3204 18.8241C21.2001 18.7425 21.1061 18.6277 21.05 18.4936C20.9939 18.3595 20.978 18.212 21.0044 18.0691C21.0374 17.8831 21.0674 17.6941 21.0674 17.5001C21.0674 17.3061 21.0384 17.1171 21.0044 16.9311C20.978 16.7881 20.9939 16.6406 21.05 16.5065C21.1061 16.3724 21.2001 16.2576 21.3204 16.1761L22.3984 15.4441L21.8404 14.5321L20.5504 15.0811C20.4265 15.1341 20.2905 15.1527 20.1568 15.1347C20.0232 15.1168 19.8969 15.063 19.7914 14.9791C19.4726 14.726 19.1132 14.5289 18.7284 14.3961C18.5938 14.3492 18.4753 14.2651 18.3867 14.1536C18.298 14.0421 18.2428 13.9077 18.2274 13.7661L18.0944 12.5001H16.9054L16.7714 13.7661C16.7561 13.9077 16.7008 14.0421 16.6121 14.1536C16.5235 14.2651 16.405 14.3492 16.2704 14.3961C15.8859 14.5288 15.5268 14.726 15.2084 14.9791C15.1027 15.063 14.9762 15.1167 14.8424 15.1347C14.7087 15.1527 14.5725 15.1341 14.4484 15.0811L13.1584 14.5321L12.6004 15.4441L13.6784 16.1761C13.9244 16.3431 14.0484 16.6391 13.9944 16.9311C13.9614 17.1171 13.9314 17.3061 13.9314 17.5001C13.9314 17.6941 13.9604 17.8831 13.9944 18.0691C14.0208 18.212 14.0049 18.3595 13.9488 18.4936C13.8927 18.6277 13.7987 18.7425 13.6784 18.8241L12.6004 19.5561L13.1584 20.4681L14.4484 19.9191C14.5725 19.866 14.7087 19.8475 14.8424 19.8654C14.9762 19.8834 15.1027 19.9372 15.2084 20.0211C15.5269 20.274 15.886 20.4711 16.2704 20.6041C16.5444 20.6991 16.7404 20.9451 16.7714 21.2341L16.9044 22.5001ZM12.4584 15.6771C12.4574 15.6781 12.4584 15.6781 12.4584 15.6771V15.6771Z" fill="#2F95DB"/>
<path d="M9.25 21H2.75C2.02082 20.9995 1.32165 20.7096 0.806041 20.194C0.290431 19.6783 0.000529737 18.9792 0 18.25L0 2.75C0.000529737 2.02082 0.290431 1.32165 0.806041 0.806041C1.32165 0.290431 2.02082 0.000529737 2.75 0L13.25 0C13.9792 0.000529737 14.6783 0.290431 15.194 0.806041C15.7096 1.32165 15.9995 2.02082 16 2.75V8.25C16 8.44891 15.921 8.63968 15.7803 8.78033C15.6397 8.92098 15.4489 9 15.25 9C15.0511 9 14.8603 8.92098 14.7197 8.78033C14.579 8.63968 14.5 8.44891 14.5 8.25V2.75C14.5 2.061 13.939 1.5 13.25 1.5H2.75C2.061 1.5 1.5 2.061 1.5 2.75V18.25C1.5 18.939 2.061 19.5 2.75 19.5H9.25C9.44891 19.5 9.63968 19.579 9.78033 19.7197C9.92098 19.8603 10 20.0511 10 20.25C10 20.4489 9.92098 20.6397 9.78033 20.7803C9.63968 20.921 9.44891 21 9.25 21Z" fill="#2F95DB"/>
<path d="M3.75034 12.9998C3.6019 12.9999 3.45677 12.9559 3.33334 12.8734C3.20991 12.7909 3.11373 12.6737 3.05697 12.5365C3.00022 12.3994 2.98545 12.2484 3.01453 12.1029C3.04362 11.9573 3.11524 11.8236 3.22034 11.7188L5.72034 9.2188C5.83636 9.10209 5.98768 9.02696 6.15079 9.00508C6.31389 8.9832 6.47966 9.01579 6.62234 9.09779L7.89534 9.8258L10.7413 7.19879C10.8892 7.07491 11.079 7.01267 11.2715 7.02497C11.464 7.03726 11.6444 7.12316 11.7753 7.26484C11.9062 7.40653 11.9775 7.59315 11.9746 7.78601C11.9716 7.97888 11.8945 8.16321 11.7593 8.30079L8.50934 11.3008C8.39211 11.4088 8.24356 11.4767 8.08517 11.4947C7.92679 11.5127 7.7668 11.4798 7.62834 11.4008L6.37534 10.6848L4.28034 12.7798C4.21096 12.8497 4.12839 12.9052 4.03741 12.9429C3.94642 12.9807 3.84885 13 3.75034 12.9998Z" fill="#2F95DB"/>
<path d="M11.25 11C11.0511 11 10.8603 10.921 10.7197 10.7803C10.579 10.6397 10.5 10.4489 10.5 10.25V8.5H8.75C8.55109 8.5 8.36032 8.42098 8.21967 8.28033C8.07902 8.13968 8 7.94891 8 7.75C8 7.55109 8.07902 7.36032 8.21967 7.21967C8.36032 7.07902 8.55109 7 8.75 7H11.25C11.4489 7 11.6397 7.07902 11.7803 7.21967C11.921 7.36032 12 7.55109 12 7.75V10.25C12 10.4489 11.921 10.6397 11.7803 10.7803C11.6397 10.921 11.4489 11 11.25 11Z" fill="#2F95DB"/>
</g>
<defs>
<clipPath id="clip0_11_13914">
<rect width="24" height="24" fill="white"/>
</clipPath>
</defs>
</svg>
