<svg width="25" height="24" viewBox="0 0 25 24" fill="none" xmlns="http://www.w3.org/2000/svg">
<g clip-path="url(#clip0_11_15856)">
<path d="M18.5 23.9998C18.3956 24.0001 18.2924 23.9783 18.197 23.9358C17.964 23.8328 12.5 21.3578 12.5 16.2858V12.1068C12.5 11.7768 12.715 11.4858 13.03 11.3898L18.28 9.78281C18.4229 9.73776 18.5761 9.73776 18.719 9.78281L23.969 11.3898C24.284 11.4858 24.499 11.7768 24.499 12.1068V16.2858C24.499 21.3578 19.035 23.8328 18.802 23.9348C18.7073 23.9782 18.6042 24.0003 18.5 23.9998ZM14 12.6618V16.2858C14 19.7798 17.442 21.8568 18.499 22.4128C19.554 21.8548 23 19.7668 23 16.2858V12.6618L18.5 11.2838L14 12.6618Z" fill="#2F95DB"/>
<path d="M18.5 23.75C18.3011 23.75 18.1103 23.671 17.9697 23.5303C17.829 23.3897 17.75 23.1989 17.75 23V10.5C17.75 10.3011 17.829 10.1103 17.9697 9.96967C18.1103 9.82902 18.3011 9.75 18.5 9.75C18.6989 9.75 18.8897 9.82902 19.0303 9.96967C19.171 10.1103 19.25 10.3011 19.25 10.5V23C19.25 23.1989 19.171 23.3897 19.0303 23.5303C18.8897 23.671 18.6989 23.75 18.5 23.75Z" fill="#2F95DB"/>
<path d="M23.75 17.0361H13.25C13.0511 17.0361 12.8603 16.9571 12.7197 16.8165C12.579 16.6758 12.5 16.485 12.5 16.2861C12.5 16.0872 12.579 15.8965 12.7197 15.7558C12.8603 15.6151 13.0511 15.5361 13.25 15.5361H23.75C23.9489 15.5361 24.1397 15.6151 24.2803 15.7558C24.421 15.8965 24.5 16.0872 24.5 16.2861C24.5 16.485 24.421 16.6758 24.2803 16.8165C24.1397 16.9571 23.9489 17.0361 23.75 17.0361Z" fill="#2F95DB"/>
<path d="M10.75 21H3.25C2.52082 20.9995 1.82165 20.7096 1.30604 20.194C0.790431 19.6783 0.50053 18.9792 0.5 18.25L0.5 2.75C0.50053 2.02082 0.790431 1.32165 1.30604 0.806041C1.82165 0.290431 2.52082 0.000529737 3.25 0L13.75 0C14.4792 0.000529737 15.1783 0.290431 15.694 0.806041C16.2096 1.32165 16.4995 2.02082 16.5 2.75V7.25C16.5 7.44891 16.421 7.63968 16.2803 7.78033C16.1397 7.92098 15.9489 8 15.75 8C15.5511 8 15.3603 7.92098 15.2197 7.78033C15.079 7.63968 15 7.44891 15 7.25V2.75C15 2.061 14.439 1.5 13.75 1.5H3.25C2.561 1.5 2 2.061 2 2.75V18.25C2 18.939 2.561 19.5 3.25 19.5H10.75C10.9489 19.5 11.1397 19.579 11.2803 19.7197C11.421 19.8603 11.5 20.0511 11.5 20.25C11.5 20.4489 11.421 20.6397 11.2803 20.7803C11.1397 20.921 10.9489 21 10.75 21Z" fill="#2F95DB"/>
<path d="M8.5 15C5.743 15 3.5 12.757 3.5 10C3.5 7.243 5.743 5 8.5 5C11.257 5 13.5 7.243 13.5 10C13.5 10.1989 13.421 10.3897 13.2803 10.5303C13.1397 10.671 12.9489 10.75 12.75 10.75C12.5511 10.75 12.3603 10.671 12.2197 10.5303C12.079 10.3897 12 10.1989 12 10C12 8.07 10.43 6.5 8.5 6.5C6.57 6.5 5 8.07 5 10C5.0008 10.5643 5.13787 11.12 5.39956 11.62C5.66124 12.1199 6.03979 12.5493 6.50302 12.8715C6.96625 13.1937 7.50045 13.3993 8.0602 13.4708C8.61994 13.5423 9.18866 13.4775 9.718 13.282C9.81028 13.2434 9.90936 13.2236 10.0094 13.2238C10.1095 13.224 10.2084 13.2443 10.3006 13.2833C10.3927 13.3224 10.476 13.3795 10.5457 13.4512C10.6154 13.523 10.6701 13.608 10.7064 13.7012C10.7428 13.7944 10.7601 13.8939 10.7574 13.994C10.7548 14.094 10.7321 14.1924 10.6908 14.2835C10.6494 14.3747 10.5903 14.4566 10.5168 14.5245C10.4434 14.5924 10.3571 14.6449 10.263 14.679C9.7005 14.895 9.10254 15.0039 8.5 15Z" fill="#2F95DB"/>
<path d="M5.49058 13.76C5.34213 13.7601 5.197 13.7161 5.07357 13.6336C4.95014 13.5511 4.85396 13.4339 4.79721 13.2967C4.74046 13.1596 4.72569 13.0086 4.75477 12.8631C4.78385 12.7175 4.85548 12.5838 4.96058 12.479L7.75058 9.689V5.75C7.75058 5.55109 7.82959 5.36032 7.97025 5.21967C8.1109 5.07902 8.30166 5 8.50058 5C8.69949 5 8.89025 5.07902 9.03091 5.21967C9.17156 5.36032 9.25058 5.55109 9.25058 5.75V10C9.25058 10.199 9.17158 10.39 9.03058 10.53L6.02058 13.54C5.9512 13.6099 5.86862 13.6654 5.77764 13.7032C5.68666 13.7409 5.58908 13.7602 5.49058 13.76Z" fill="#2F95DB"/>
</g>
<defs>
<clipPath id="clip0_11_15856">
<rect width="24" height="24" fill="white" transform="translate(0.5)"/>
</clipPath>
</defs>
</svg>
