<svg width="28" height="29" viewBox="0 0 28 29" fill="none" xmlns="http://www.w3.org/2000/svg">
<g clip-path="url(#clip0_21_6874)">
<path d="M14.0003 13.3333C12.7135 13.3333 11.667 12.2868 11.667 11C11.667 9.71313 12.7135 8.66663 14.0003 8.66663C15.2872 8.66663 16.3337 9.71313 16.3337 11C16.3337 12.2868 15.2872 13.3333 14.0003 13.3333ZM14.0003 10.4166C13.8453 10.4169 13.6968 10.4788 13.5874 10.5886C13.478 10.6985 13.4167 10.8473 13.417 11.0023C13.4173 11.1573 13.4792 11.3059 13.589 11.4153C13.6988 11.5247 13.8476 11.5859 14.0027 11.5856C14.0794 11.5855 14.1554 11.5702 14.2262 11.5407C14.2971 11.5112 14.3615 11.468 14.4156 11.4136C14.4698 11.3592 14.5127 11.2947 14.5419 11.2237C14.5712 11.1528 14.5861 11.0767 14.586 11C14.5858 10.9232 14.5706 10.8472 14.5411 10.7764C14.5115 10.7055 14.4684 10.6412 14.414 10.587C14.3596 10.5328 14.2951 10.4899 14.2241 10.4607C14.1531 10.4314 14.0771 10.4165 14.0003 10.4166ZM19.8337 18C18.5468 18 17.5003 16.9535 17.5003 15.6666C17.5003 14.3798 18.5468 13.3333 19.8337 13.3333C21.1205 13.3333 22.167 14.3798 22.167 15.6666C22.167 16.9535 21.1205 18 19.8337 18ZM19.8337 15.0833C19.7569 15.0834 19.6809 15.0987 19.6101 15.1282C19.5392 15.1577 19.4749 15.2009 19.4207 15.2553C19.3665 15.3097 19.3236 15.3742 19.2944 15.4452C19.2651 15.5162 19.2502 15.5922 19.2503 15.669C19.2505 15.7457 19.2657 15.8217 19.2953 15.8925C19.3248 15.9634 19.368 16.0278 19.4223 16.0819C19.4767 16.1361 19.5413 16.179 19.6122 16.2082C19.6832 16.2375 19.7592 16.2524 19.836 16.2523C19.991 16.252 20.1396 16.1901 20.249 16.0803C20.3584 15.9704 20.4196 15.8216 20.4193 15.6666C20.419 15.5116 20.3571 15.3631 20.2473 15.2537C20.1375 15.1443 19.9887 15.083 19.8337 15.0833Z" fill="#090909"/>
<path d="M13.9997 26.1667C13.7676 26.1667 13.5451 26.0745 13.381 25.9104C13.2169 25.7463 13.1247 25.5237 13.1247 25.2917V12.75C13.1247 12.5179 13.2169 12.2954 13.381 12.1313C13.5451 11.9672 13.7676 11.875 13.9997 11.875C14.2317 11.875 14.4543 11.9672 14.6184 12.1313C14.7825 12.2954 14.8747 12.5179 14.8747 12.75V25.2917C14.8747 25.5237 14.7825 25.7463 14.6184 25.9104C14.4543 26.0745 14.2317 26.1667 13.9997 26.1667ZM17.208 22.6667C16.9759 22.6667 16.7534 22.5745 16.5893 22.4104C16.4252 22.2463 16.333 22.0237 16.333 21.7917V18.5833C16.333 18.3803 16.4042 18.1832 16.5337 18.0257L17.922 16.3457C18.0729 16.1768 18.2834 16.073 18.5092 16.0559C18.7351 16.0389 18.9587 16.1099 19.1333 16.2542C19.3079 16.3985 19.4198 16.6047 19.4456 16.8297C19.4715 17.0547 19.4092 17.2809 19.2718 17.461L18.083 18.8983V21.7917C18.083 22.0237 17.9908 22.2463 17.8267 22.4104C17.6626 22.5745 17.4401 22.6667 17.208 22.6667ZM8.16634 18C6.87951 18 5.83301 16.9535 5.83301 15.6667C5.83301 14.3798 6.87951 13.3333 8.16634 13.3333C9.45317 13.3333 10.4997 14.3798 10.4997 15.6667C10.4997 16.9535 9.45317 18 8.16634 18ZM8.16634 15.0833C8.01132 15.0836 7.86278 15.1455 7.75338 15.2554C7.64398 15.3652 7.5827 15.514 7.58301 15.669C7.58332 15.824 7.6452 15.9726 7.75503 16.082C7.86486 16.1914 8.01366 16.2526 8.16867 16.2523C8.32369 16.252 8.47224 16.1901 8.58164 16.0803C8.69103 15.9705 8.75232 15.8217 8.75201 15.6667C8.7517 15.5116 8.68982 15.3631 8.57999 15.2537C8.47015 15.1443 8.32136 15.083 8.16634 15.0833Z" fill="#090909"/>
<path d="M10.7918 22.6667C10.5597 22.6667 10.3371 22.5745 10.173 22.4104C10.009 22.2463 9.91676 22.0237 9.91676 21.7917V18.8983L8.72793 17.461C8.6547 17.3724 8.59964 17.2702 8.56589 17.1603C8.53215 17.0504 8.52039 16.9349 8.53128 16.8204C8.55327 16.5893 8.66618 16.3763 8.84518 16.2284C9.02418 16.0805 9.2546 16.0098 9.48575 16.0318C9.71691 16.0538 9.92986 16.1667 10.0778 16.3457L11.4661 18.0257C11.5956 18.1827 11.6665 18.3798 11.6668 18.5833V21.7917C11.6668 22.0237 11.5746 22.2463 11.4105 22.4104C11.2464 22.5745 11.0238 22.6667 10.7918 22.6667Z" fill="#090909"/>
<path d="M7.29167 21.5H6.00833C2.69617 21.5 0 18.8307 0 15.55C0 12.4829 2.35667 9.95004 5.37017 9.63387C6.27667 5.70921 9.86417 2.83337 14 2.83337C17.2573 2.83337 20.2568 4.61721 21.7828 7.41837C25.3085 7.85821 28 10.8402 28 14.4184C28 18.2369 24.8675 21.409 21.0187 21.4884H21C20.7679 21.4909 20.5444 21.401 20.3785 21.2387C20.2127 21.0763 20.1181 20.8548 20.1157 20.6227C20.1132 20.3906 20.203 20.1671 20.3653 20.0013C20.5277 19.8354 20.7493 19.7409 20.9813 19.7384C23.8863 19.6789 26.25 17.2919 26.25 14.4184C26.25 11.5985 24.0217 9.27104 21.175 9.12054C21.0171 9.11177 20.8645 9.06053 20.7333 8.97224C20.602 8.88394 20.4971 8.76186 20.4295 8.61887C19.2792 6.16771 16.7545 4.58337 14 4.58337C10.4802 4.58337 7.4585 7.16871 6.9685 10.5987C6.93871 10.8073 6.83463 10.9982 6.67538 11.1362C6.51613 11.2743 6.31241 11.3502 6.10167 11.35C3.65983 11.35 1.75 13.2342 1.75 15.55C1.75 17.8659 3.661 19.75 6.00833 19.75H7.29167C7.52373 19.75 7.74629 19.8422 7.91039 20.0063C8.07448 20.1704 8.16667 20.393 8.16667 20.625C8.16667 20.8571 8.07448 21.0797 7.91039 21.2438C7.74629 21.4079 7.52373 21.5 7.29167 21.5Z" fill="#090909"/>
</g>
<defs>
<clipPath id="clip0_21_6874">
<rect width="28" height="28" fill="white" transform="translate(0 0.5)"/>
</clipPath>
</defs>
</svg>
