<svg width="25" height="22" viewBox="0 0 25 22" fill="none" xmlns="http://www.w3.org/2000/svg">
<path d="M20.5 15.0001C19.397 15.0001 18.5 14.1031 18.5 13.0001C18.5 11.8971 19.397 11.0001 20.5 11.0001C21.603 11.0001 22.5 11.8971 22.5 13.0001C22.5 14.1031 21.603 15.0001 20.5 15.0001ZM20.5 12.5001C20.3674 12.5001 20.2402 12.5528 20.1464 12.6465C20.0527 12.7403 20 12.8675 20 13.0001C20 13.1327 20.0527 13.2599 20.1464 13.3536C20.2402 13.4474 20.3674 13.5001 20.5 13.5001C20.6326 13.5001 20.7598 13.4474 20.8536 13.3536C20.9473 13.2599 21 13.1327 21 13.0001C21 12.8675 20.9473 12.7403 20.8536 12.6465C20.7598 12.5528 20.6326 12.5001 20.5 12.5001ZM23.75 20.0001C23.5511 20.0001 23.3603 19.9211 23.2197 19.7804C23.079 19.6398 23 19.449 23 19.2501V18.7501C23 18.0611 22.439 17.5001 21.75 17.5001H19.25C19.0511 17.5001 18.8603 17.4211 18.7197 17.2804C18.579 17.1398 18.5 16.949 18.5 16.7501C18.5 16.5512 18.579 16.3604 18.7197 16.2198C18.8603 16.0791 19.0511 16.0001 19.25 16.0001H21.75C22.4792 16.0006 23.1783 16.2905 23.694 16.8061C24.2096 17.3217 24.4995 18.0209 24.5 18.7501V19.2501C24.5 19.449 24.421 19.6398 24.2803 19.7804C24.1397 19.9211 23.9489 20.0001 23.75 20.0001ZM4.5 15.0001C3.397 15.0001 2.5 14.1031 2.5 13.0001C2.5 11.8971 3.397 11.0001 4.5 11.0001C5.603 11.0001 6.5 11.8971 6.5 13.0001C6.5 14.1031 5.603 15.0001 4.5 15.0001ZM4.5 12.5001C4.36739 12.5001 4.24021 12.5528 4.14645 12.6465C4.05268 12.7403 4 12.8675 4 13.0001C4 13.1327 4.05268 13.2599 4.14645 13.3536C4.24021 13.4474 4.36739 13.5001 4.5 13.5001C4.63261 13.5001 4.75979 13.4474 4.85355 13.3536C4.94732 13.2599 5 13.1327 5 13.0001C5 12.8675 4.94732 12.7403 4.85355 12.6465C4.75979 12.5528 4.63261 12.5001 4.5 12.5001ZM1.25 20.0001C1.05109 20.0001 0.860322 19.9211 0.71967 19.7804C0.579018 19.6398 0.5 19.449 0.5 19.2501V18.7501C0.50053 18.0209 0.790431 17.3217 1.30604 16.8061C1.82165 16.2905 2.52082 16.0006 3.25 16.0001H5.75C5.94891 16.0001 6.13968 16.0791 6.28033 16.2198C6.42098 16.3604 6.5 16.5512 6.5 16.7501C6.5 16.949 6.42098 17.1398 6.28033 17.2804C6.13968 17.4211 5.94891 17.5001 5.75 17.5001H3.25C2.561 17.5001 2 18.0611 2 18.7501V19.2501C2 19.449 1.92098 19.6398 1.78033 19.7804C1.63968 19.9211 1.44891 20.0001 1.25 20.0001ZM12.5 15.5001C10.846 15.5001 9.5 14.1541 9.5 12.5001C9.5 10.8461 10.846 9.50009 12.5 9.50009C14.154 9.50009 15.5 10.8461 15.5 12.5001C15.5 14.1541 14.154 15.5001 12.5 15.5001ZM12.5 11.0001C11.673 11.0001 11 11.6731 11 12.5001C11 13.3271 11.673 14.0001 12.5 14.0001C13.327 14.0001 14 13.3271 14 12.5001C14 11.6731 13.327 11.0001 12.5 11.0001ZM17.25 22.0001C17.0511 22.0001 16.8603 21.9211 16.7197 21.7804C16.579 21.6398 16.5 21.449 16.5 21.2501V19.7501C16.5 19.0611 15.939 18.5001 15.25 18.5001H9.75C9.061 18.5001 8.5 19.0611 8.5 19.7501V21.2501C8.5 21.449 8.42098 21.6398 8.28033 21.7804C8.13968 21.9211 7.94891 22.0001 7.75 22.0001C7.55109 22.0001 7.36032 21.9211 7.21967 21.7804C7.07902 21.6398 7 21.449 7 21.2501V19.7501C7.00053 19.0209 7.29043 18.3217 7.80604 17.8061C8.32165 17.2905 9.02082 17.0006 9.75 17.0001H15.25C15.9792 17.0006 16.6783 17.2905 17.194 17.8061C17.7096 18.3217 17.9995 19.0209 18 19.7501V21.2501C18 21.449 17.921 21.6398 17.7803 21.7804C17.6397 21.9211 17.4489 22.0001 17.25 22.0001ZM15.967 8.00009H9.033C8.8582 8.00009 8.6889 7.93904 8.55433 7.82748C8.41977 7.71592 8.3284 7.56086 8.296 7.38909L7.513 3.22209C7.48731 3.08756 7.499 2.94856 7.5468 2.8202C7.5946 2.69185 7.67668 2.57906 7.78412 2.4941C7.89155 2.40914 8.02022 2.35527 8.15614 2.33835C8.29205 2.32142 8.43001 2.34208 8.555 2.39809L10.235 3.14409L11.853 0.373094C12.123 -0.0879063 12.879 -0.0879063 13.149 0.373094L14.767 3.14409L16.447 2.39809C16.572 2.34246 16.7098 2.32208 16.8456 2.33916C16.9813 2.35625 17.1098 2.41014 17.2172 2.49501C17.3245 2.57988 17.4065 2.69249 17.4545 2.82065C17.5024 2.94881 17.5143 3.08763 17.489 3.22209L16.706 7.38909C16.673 7.56094 16.5812 7.71593 16.4463 7.82743C16.3115 7.93893 16.142 7.99998 15.967 8.00009ZM9.655 6.50009H15.345L15.749 4.34809L14.76 4.78709C14.5912 4.86148 14.4009 4.87119 14.2253 4.8144C14.0498 4.75761 13.9013 4.63828 13.808 4.47909L12.5 2.23809L11.191 4.48009C11.0976 4.63911 10.949 4.75831 10.7736 4.81508C10.5981 4.87185 10.4079 4.86225 10.239 4.78809L9.25 4.34809L9.655 6.50009Z" fill="#2F95DB"/>
</svg>
