<svg width="25" height="22" viewBox="0 0 25 22" fill="none" xmlns="http://www.w3.org/2000/svg">
<path d="M20.5 8H4.5C2.294 8 0.5 6.206 0.5 4C0.5 1.794 2.294 0 4.5 0H20.5C22.706 0 24.5 1.794 24.5 4C24.5 6.206 22.706 8 20.5 8ZM4.5 1C2.846 1 1.5 2.346 1.5 4C1.5 5.654 2.846 7 4.5 7H20.5C22.154 7 23.5 5.654 23.5 4C23.5 2.346 22.154 1 20.5 1H4.5Z" fill="#2F95DB"/>
<path d="M20.5 15H4.5C2.294 15 0.5 13.206 0.5 11C0.5 8.794 2.294 7 4.5 7H20.5C22.706 7 24.5 8.794 24.5 11C24.5 13.206 22.706 15 20.5 15ZM4.5 8C2.846 8 1.5 9.346 1.5 11C1.5 12.654 2.846 14 4.5 14H20.5C22.154 14 23.5 12.654 23.5 11C23.5 9.346 22.154 8 20.5 8H4.5Z" fill="#2F95DB"/>
<path d="M20.5 22H4.5C2.294 22 0.5 20.206 0.5 18C0.5 15.794 2.294 14 4.5 14H20.5C22.706 14 24.5 15.794 24.5 18C24.5 20.206 22.706 22 20.5 22ZM4.5 15C2.846 15 1.5 16.346 1.5 18C1.5 19.654 2.846 21 4.5 21H20.5C22.154 21 23.5 19.654 23.5 18C23.5 16.346 22.154 15 20.5 15H4.5ZM5 12.5C4.173 12.5 3.5 11.827 3.5 11C3.5 10.173 4.173 9.5 5 9.5C5.827 9.5 6.5 10.173 6.5 11C6.5 11.827 5.827 12.5 5 12.5ZM5 10.5C4.86739 10.5 4.74021 10.5527 4.64645 10.6464C4.55268 10.7402 4.5 10.8674 4.5 11C4.5 11.1326 4.55268 11.2598 4.64645 11.3536C4.74021 11.4473 4.86739 11.5 5 11.5C5.13261 11.5 5.25979 11.4473 5.35355 11.3536C5.44732 11.2598 5.5 11.1326 5.5 11C5.5 10.8674 5.44732 10.7402 5.35355 10.6464C5.25979 10.5527 5.13261 10.5 5 10.5ZM10 12.5C9.173 12.5 8.5 11.827 8.5 11C8.5 10.173 9.173 9.5 10 9.5C10.827 9.5 11.5 10.173 11.5 11C11.5 11.827 10.827 12.5 10 12.5ZM10 10.5C9.86739 10.5 9.74021 10.5527 9.64645 10.6464C9.55268 10.7402 9.5 10.8674 9.5 11C9.5 11.1326 9.55268 11.2598 9.64645 11.3536C9.74021 11.4473 9.86739 11.5 10 11.5C10.1326 11.5 10.2598 11.4473 10.3536 11.3536C10.4473 11.2598 10.5 11.1326 10.5 11C10.5 10.8674 10.4473 10.7402 10.3536 10.6464C10.2598 10.5527 10.1326 10.5 10 10.5ZM5 5.5C4.173 5.5 3.5 4.827 3.5 4C3.5 3.173 4.173 2.5 5 2.5C5.827 2.5 6.5 3.173 6.5 4C6.5 4.827 5.827 5.5 5 5.5ZM5 3.5C4.86739 3.5 4.74021 3.55268 4.64645 3.64645C4.55268 3.74022 4.5 3.86739 4.5 4C4.5 4.13261 4.55268 4.25979 4.64645 4.35355C4.74021 4.44732 4.86739 4.5 5 4.5C5.13261 4.5 5.25979 4.44732 5.35355 4.35355C5.44732 4.25979 5.5 4.13261 5.5 4C5.5 3.86739 5.44732 3.74022 5.35355 3.64645C5.25979 3.55268 5.13261 3.5 5 3.5ZM10 5.5C9.173 5.5 8.5 4.827 8.5 4C8.5 3.173 9.173 2.5 10 2.5C10.827 2.5 11.5 3.173 11.5 4C11.5 4.827 10.827 5.5 10 5.5ZM10 3.5C9.86739 3.5 9.74021 3.55268 9.64645 3.64645C9.55268 3.74022 9.5 3.86739 9.5 4C9.5 4.13261 9.55268 4.25979 9.64645 4.35355C9.74021 4.44732 9.86739 4.5 10 4.5C10.1326 4.5 10.2598 4.44732 10.3536 4.35355C10.4473 4.25979 10.5 4.13261 10.5 4C10.5 3.86739 10.4473 3.74022 10.3536 3.64645C10.2598 3.55268 10.1326 3.5 10 3.5Z" fill="#2F95DB"/>
<path d="M10 19.5C9.173 19.5 8.5 18.827 8.5 18C8.5 17.173 9.173 16.5 10 16.5C10.827 16.5 11.5 17.173 11.5 18C11.5 18.827 10.827 19.5 10 19.5ZM10 17.5C9.86739 17.5 9.74021 17.5527 9.64645 17.6464C9.55268 17.7402 9.5 17.8674 9.5 18C9.5 18.1326 9.55268 18.2598 9.64645 18.3536C9.74021 18.4473 9.86739 18.5 10 18.5C10.1326 18.5 10.2598 18.4473 10.3536 18.3536C10.4473 18.2598 10.5 18.1326 10.5 18C10.5 17.8674 10.4473 17.7402 10.3536 17.6464C10.2598 17.5527 10.1326 17.5 10 17.5ZM5 19.5C4.173 19.5 3.5 18.827 3.5 18C3.5 17.173 4.173 16.5 5 16.5C5.827 16.5 6.5 17.173 6.5 18C6.5 18.827 5.827 19.5 5 19.5ZM5 17.5C4.86739 17.5 4.74021 17.5527 4.64645 17.6464C4.55268 17.7402 4.5 17.8674 4.5 18C4.5 18.1326 4.55268 18.2598 4.64645 18.3536C4.74021 18.4473 4.86739 18.5 5 18.5C5.13261 18.5 5.25979 18.4473 5.35355 18.3536C5.44732 18.2598 5.5 18.1326 5.5 18C5.5 17.8674 5.44732 17.7402 5.35355 17.6464C5.25979 17.5527 5.13261 17.5 5 17.5Z" fill="#2F95DB"/>
</svg>
