<svg width="25" height="24" viewBox="0 0 25 24" fill="none" xmlns="http://www.w3.org/2000/svg">
<g clip-path="url(#clip0_11_11940)">
<path d="M21.4526 12.0001C21.0706 12.0001 20.7216 11.8271 20.4946 11.5261L17.5046 7.7961C17.443 7.71928 17.3972 7.63108 17.3697 7.53653C17.3422 7.44199 17.3336 7.34295 17.3443 7.24508C17.3551 7.14721 17.3851 7.05241 17.4325 6.96611C17.4799 6.87981 17.5438 6.8037 17.6206 6.74211C17.6975 6.68052 17.7857 6.63466 17.8802 6.60716C17.9747 6.57965 18.0738 6.57104 18.1717 6.58181C18.2695 6.59259 18.3643 6.62253 18.4506 6.66994C18.5369 6.71734 18.613 6.78128 18.6746 6.8581L21.4756 10.3511L22.8506 8.9761L19.3576 6.17611C19.2022 6.05185 19.1025 5.87095 19.0805 5.67319C19.0585 5.47543 19.1159 5.27702 19.2401 5.1216C19.3644 4.96619 19.5453 4.8665 19.7431 4.84446C19.9408 4.82243 20.1392 4.87985 20.2946 5.00411L24.0436 8.0091C24.3256 8.2201 24.4996 8.57011 24.4996 8.9531C24.4996 9.27311 24.3716 9.5761 24.1406 9.8061L22.3046 11.6421C22.1933 11.7551 22.0607 11.845 21.9145 11.9064C21.7682 11.9679 21.6113 11.9997 21.4526 12.0001ZM21.6716 10.5961L21.6796 10.6061C21.6773 10.6025 21.6746 10.5992 21.6716 10.5961ZM23.1086 9.18211C23.1141 9.18675 23.1197 9.19109 23.1256 9.1951L23.1086 9.18211Z" fill="#2F95DB"/>
<path d="M16.5 8C14.294 8 12.5 6.206 12.5 4C12.5 3.898 12.503 3.796 12.519 3.694C12.5348 3.58859 12.5729 3.48776 12.6308 3.39824C12.6887 3.30872 12.7649 3.23256 12.8545 3.17483C12.9442 3.11711 13.045 3.07916 13.1505 3.06349C13.2559 3.04783 13.3635 3.05482 13.466 3.084L15.353 3.622L16.123 2.853L15.584 0.965C15.555 0.861987 15.5483 0.753971 15.5644 0.648171C15.5805 0.54237 15.619 0.441222 15.6773 0.351486C15.7356 0.26175 15.8124 0.185493 15.9025 0.127811C15.9927 0.0701286 16.0941 0.0323501 16.2 0.017C16.3 0.002 16.399 0 16.5 0C18.706 0 20.5 1.794 20.5 4C20.5 6.206 18.706 8 16.5 8ZM14.161 4.842C14.3319 5.32612 14.6485 5.74544 15.0673 6.04233C15.4861 6.33922 15.9866 6.4991 16.5 6.5C17.879 6.5 19 5.378 19 4C18.9993 3.4838 18.8392 2.98042 18.5415 2.55869C18.2439 2.13697 17.8232 1.81751 17.337 1.644L17.686 2.866C17.7223 2.99459 17.7238 3.13054 17.6902 3.25988C17.6567 3.38922 17.5893 3.5073 17.495 3.602L16.102 4.995C16.0074 5.08937 15.8893 5.15681 15.7599 5.19038C15.6306 5.22395 15.4946 5.22244 15.366 5.186L14.161 4.842Z" fill="#2F95DB"/>
<path d="M22.75 21H2.25C1.285 21 0.5 20.215 0.5 19.25V5.75C0.5 4.785 1.285 4 2.25 4H9.98C10.1789 4 10.3697 4.07902 10.5103 4.21967C10.651 4.36032 10.73 4.55109 10.73 4.75C10.73 4.94891 10.651 5.13968 10.5103 5.28033C10.3697 5.42098 10.1789 5.5 9.98 5.5H2.25C2.1837 5.5 2.12011 5.52634 2.07322 5.57322C2.02634 5.62011 2 5.6837 2 5.75V19.25C2 19.388 2.112 19.5 2.25 19.5H22.75C22.8163 19.5 22.8799 19.4737 22.9268 19.4268C22.9737 19.3799 23 19.3163 23 19.25V13C23 12.8011 23.079 12.6103 23.2197 12.4697C23.3603 12.329 23.5511 12.25 23.75 12.25C23.9489 12.25 24.1397 12.329 24.2803 12.4697C24.421 12.6103 24.5 12.8011 24.5 13V19.25C24.5 20.215 23.715 21 22.75 21Z" fill="#2F95DB"/>
<path d="M23.75 17.5H1.25C1.05109 17.5 0.860322 17.421 0.71967 17.2803C0.579018 17.1397 0.5 16.9489 0.5 16.75C0.5 16.5511 0.579018 16.3603 0.71967 16.2197C0.860322 16.079 1.05109 16 1.25 16H23.75C23.9489 16 24.1397 16.079 24.2803 16.2197C24.421 16.3603 24.5 16.5511 24.5 16.75C24.5 16.9489 24.421 17.1397 24.2803 17.2803C24.1397 17.421 23.9489 17.5 23.75 17.5ZM15.75 24H9.25C9.10176 23.9999 8.95688 23.9558 8.83367 23.8734C8.71045 23.791 8.61442 23.6739 8.55771 23.5369C8.501 23.4 8.48615 23.2493 8.51503 23.1039C8.54392 22.9585 8.61524 22.8249 8.72 22.72C9.766 21.675 9.986 20.165 9.988 20.15C10.0009 20.0523 10.033 19.9581 10.0825 19.8729C10.132 19.7877 10.1979 19.7132 10.2764 19.6536C10.3549 19.594 10.4444 19.5505 10.5397 19.5257C10.6351 19.5009 10.7344 19.4952 10.832 19.509C11.241 19.564 11.529 19.939 11.475 20.349C11.3515 21.1034 11.1002 21.8311 10.732 22.501H14.254C13.663 21.421 13.517 20.413 13.508 20.354C13.4804 20.1569 13.5322 19.957 13.6521 19.7982C13.7719 19.6393 13.9499 19.5346 14.147 19.507C14.3441 19.4794 14.544 19.5312 14.7028 19.6511C14.8617 19.7709 14.9664 19.9489 14.994 20.146C15.001 20.189 15.226 21.615 16.18 22.635C16.3109 22.7264 16.4093 22.8572 16.4607 23.0083C16.5122 23.1594 16.514 23.3231 16.4661 23.4753C16.4181 23.6276 16.3228 23.7606 16.194 23.855C16.0652 23.9494 15.9097 24.0002 15.75 24Z" fill="#2F95DB"/>
</g>
<defs>
<clipPath id="clip0_11_11940">
<rect width="24" height="24" fill="white" transform="translate(0.5)"/>
</clipPath>
</defs>
</svg>
