<svg width="24" height="24" viewBox="0 0 24 24" fill="none" xmlns="http://www.w3.org/2000/svg">
<g clip-path="url(#clip0_11_13903)">
<path d="M6.243 19.961C5.84684 19.9615 5.4516 19.923 5.063 19.846C4.659 19.76 4.401 19.364 4.486 18.958C4.571 18.552 4.966 18.291 5.374 18.378C5.76 18.46 6.984 18.588 7.532 18.14C7.658 18.037 7.826 17.848 7.826 17.381C7.826 16.456 7.544 16.174 6.619 16.174C6.42008 16.174 6.22932 16.095 6.08867 15.9543C5.94801 15.8137 5.869 15.6229 5.869 15.424C5.869 15.2251 5.94801 15.0343 6.08867 14.8937C6.22932 14.753 6.42008 14.674 6.619 14.674C8.365 14.674 9.326 15.635 9.326 17.381C9.326 18.403 8.863 18.992 8.474 19.307C7.826 19.832 6.948 19.961 6.243 19.961ZM18.804 5.912C18.6847 5.91185 18.5671 5.88327 18.461 5.82863C18.355 5.77399 18.2634 5.69486 18.194 5.5978C18.1246 5.50074 18.0794 5.38854 18.062 5.27049C18.0446 5.15245 18.0555 5.03196 18.094 4.919C18.174 4.688 18.214 4.437 18.214 4.174C18.214 2.699 16.868 1.5 15.214 1.5C14.157 1.5 13.166 2.011 12.628 2.834C12.5158 2.99299 12.3462 3.10221 12.155 3.13865C11.9639 3.17508 11.766 3.13588 11.6032 3.02931C11.4404 2.92274 11.3252 2.75712 11.2821 2.56735C11.239 2.37758 11.2712 2.17848 11.372 2.012C12.197 0.752 13.633 0 15.214 0C17.695 0 19.714 1.872 19.714 4.174C19.714 4.603 19.647 5.017 19.514 5.405C19.4631 5.55284 19.3673 5.68112 19.24 5.77199C19.1128 5.86286 18.9604 5.9118 18.804 5.912Z" fill="#2F95DB"/>
<path d="M15.214 24C13.633 24 12.197 23.248 11.372 21.988C11.318 21.9055 11.2808 21.8132 11.2625 21.7164C11.2442 21.6195 11.2452 21.52 11.2653 21.4236C11.2855 21.3271 11.3244 21.2355 11.38 21.1541C11.4355 21.0727 11.5065 21.003 11.589 20.949C11.6715 20.895 11.7638 20.8578 11.8606 20.8395C11.9575 20.8212 12.057 20.8222 12.1534 20.8423C12.2499 20.8625 12.3415 20.9014 12.4229 20.957C12.5043 21.0125 12.574 21.0835 12.628 21.166C13.166 21.989 14.157 22.5 15.214 22.5C16.868 22.5 18.214 21.301 18.214 19.826C18.214 19.649 18.192 19.463 18.15 19.287C18.1054 19.1007 18.1338 18.9043 18.2294 18.7383C18.325 18.5722 18.4805 18.449 18.664 18.394C20.318 17.896 21.43 16.505 21.43 14.934C21.43 14.168 21.172 13.441 20.683 12.83C20.6157 12.7459 20.5673 12.6483 20.5411 12.5439C20.5149 12.4394 20.5115 12.3305 20.5312 12.2246C20.5508 12.1188 20.593 12.0183 20.6549 11.9302C20.7169 11.8421 20.797 11.7684 20.89 11.714C21.899 11.124 22.501 10.134 22.501 9.065C22.501 7.321 20.915 5.902 18.965 5.902C18.197 5.902 17.572 6.443 17.572 7.108C17.572 7.762 18.21 8.315 18.965 8.315C19.1639 8.315 19.3547 8.39402 19.4953 8.53467C19.636 8.67532 19.715 8.86609 19.715 9.065C19.715 9.26391 19.636 9.45468 19.4953 9.59533C19.3547 9.73598 19.1639 9.815 18.965 9.815C17.37 9.815 16.072 8.6 16.072 7.108C16.072 5.616 17.37 4.402 18.965 4.402C21.741 4.402 24 6.494 24 9.065C24 10.418 23.377 11.676 22.302 12.554C22.714 13.281 22.929 14.09 22.929 14.934C22.929 16.966 21.658 18.776 19.708 19.608C19.712 19.681 19.714 19.754 19.714 19.826C19.714 22.128 17.695 24 15.214 24ZM5.196 5.912C5.03956 5.9121 4.887 5.86327 4.75969 5.77236C4.63238 5.68145 4.53668 5.553 4.486 5.405C4.3519 5.0085 4.28432 4.59255 4.286 4.174C4.286 1.872 6.305 0 8.786 0C10.367 0 11.803 0.752 12.628 2.012C12.682 2.09447 12.7192 2.18676 12.7375 2.28361C12.7558 2.38046 12.7548 2.47996 12.7347 2.57644C12.7145 2.67292 12.6756 2.76449 12.62 2.84591C12.5645 2.92734 12.4935 2.99703 12.411 3.051C12.3285 3.10497 12.2362 3.14217 12.1394 3.16048C12.0425 3.17878 11.943 3.17783 11.8466 3.15768C11.7501 3.13753 11.6585 3.09858 11.5771 3.04304C11.4957 2.9875 11.426 2.91647 11.372 2.834C10.834 2.011 9.843 1.5 8.786 1.5C7.132 1.5 5.786 2.699 5.786 4.174C5.786 4.437 5.826 4.688 5.906 4.919C5.94445 5.03196 5.95543 5.15245 5.93803 5.27049C5.92063 5.38854 5.87536 5.50074 5.80596 5.5978C5.73656 5.69486 5.64503 5.77399 5.53896 5.82863C5.43288 5.88327 5.31532 5.91185 5.196 5.912Z" fill="#2F95DB"/>
<path d="M8.786 23.9999C6.305 23.9999 4.286 22.1279 4.286 19.8259C4.286 19.7539 4.288 19.6809 4.292 19.6079C2.342 18.7759 1.071 16.9659 1.071 14.9339C1.071 14.0899 1.286 13.2809 1.698 12.5539C0.623 11.6769 0 10.4179 0 9.06486C0 6.49385 2.259 4.40186 5.036 4.40186C6.631 4.40186 7.929 5.61586 7.929 7.10786C7.929 7.30677 7.84998 7.49753 7.70933 7.63819C7.56868 7.77884 7.37791 7.85786 7.179 7.85786C6.98009 7.85786 6.78932 7.77884 6.64867 7.63819C6.50802 7.49753 6.429 7.30677 6.429 7.10786C6.429 6.44286 5.804 5.90186 5.036 5.90186C3.086 5.90186 1.5 7.32086 1.5 9.06486C1.5 10.1339 2.103 11.1249 3.111 11.7139C3.20396 11.7682 3.28413 11.842 3.34605 11.9301C3.40796 12.0182 3.45018 12.1186 3.46982 12.2245C3.48946 12.3304 3.48606 12.4393 3.45987 12.5437C3.43367 12.6482 3.38528 12.7458 3.318 12.8299C2.83466 13.4245 2.57087 14.1675 2.571 14.9339C2.571 16.5049 3.682 17.8959 5.337 18.3939C5.52053 18.4489 5.67604 18.5721 5.77162 18.7381C5.8672 18.9042 5.8956 19.1005 5.851 19.2869C5.80897 19.4635 5.7875 19.6443 5.787 19.8259C5.787 21.3009 7.133 22.4999 8.787 22.4999C9.844 22.4999 10.835 21.9889 11.373 21.1659C11.482 20.9993 11.6527 20.8829 11.8476 20.8422C12.0424 20.8015 12.2454 20.8399 12.412 20.9489C12.5786 21.0579 12.695 21.2286 12.7357 21.4234C12.7764 21.6183 12.738 21.8213 12.629 21.9879C11.803 23.2479 10.367 23.9999 8.786 23.9999Z" fill="#2F95DB"/>
<path d="M10.999 17.2502C10.8593 17.2499 10.7224 17.2107 10.6038 17.1368C10.4852 17.063 10.3896 16.9575 10.3277 16.8322C10.2659 16.7069 10.2402 16.5669 10.2537 16.4278C10.2672 16.2888 10.3192 16.1562 10.404 16.0452L12.729 13.0002L9.745 12.9992C9.60473 12.9984 9.46747 12.9585 9.34871 12.8838C9.22996 12.8092 9.13444 12.7028 9.07297 12.5768C9.01149 12.4507 8.9865 12.3099 9.00082 12.1704C9.01514 12.0309 9.06819 11.8981 9.154 11.7872L12.48 7.53815C12.6025 7.38141 12.7823 7.27976 12.9798 7.25557C13.1773 7.23138 13.3763 7.28662 13.533 7.40915C13.6897 7.53168 13.7914 7.71146 13.8156 7.90894C13.8398 8.10641 13.7845 8.30541 13.662 8.46215L11.284 11.5002L14.238 11.5012C14.4175 11.4983 14.5918 11.5612 14.728 11.6782C14.8063 11.7435 14.8703 11.8243 14.9159 11.9155C14.9615 12.0067 14.9877 12.1063 14.993 12.2082C15.0033 12.3843 14.9513 12.5585 14.846 12.7002L14.844 12.7022L14.843 12.7042L14.842 12.7052L14.84 12.7072L11.595 16.9562C11.525 17.0478 11.4348 17.122 11.3314 17.173C11.2281 17.224 11.1143 17.2504 10.999 17.2502Z" fill="#2F95DB"/>
</g>
<defs>
<clipPath id="clip0_11_13903">
<rect width="24" height="24" fill="white"/>
</clipPath>
</defs>
</svg>
