<svg width="25" height="24" viewBox="0 0 25 24" fill="none" xmlns="http://www.w3.org/2000/svg">
<path d="M12.5 22.7502C12.3011 22.7502 12.1103 22.6711 11.9697 22.5305C11.829 22.3898 11.75 22.1991 11.75 22.0001V10.5C11.75 10.3011 11.829 10.1103 11.9697 9.96967C12.1103 9.82902 12.3011 9.75 12.5 9.75C12.6989 9.75 12.8897 9.82902 13.0303 9.96967C13.171 10.1103 13.25 10.3011 13.25 10.5V22.0001C13.25 22.1991 13.171 22.3898 13.0303 22.5305C12.8897 22.6711 12.6989 22.7502 12.5 22.7502Z" fill="#2F95DB"/>
<path d="M12.5004 11C11.3974 11 10.5004 10.103 10.5004 9.00002C10.5004 7.89701 11.3974 7 12.5004 7C13.6035 7 14.5005 7.89701 14.5005 9.00002C14.5005 10.103 13.6035 11 12.5004 11ZM12.5004 8.50002C12.3678 8.50002 12.2407 8.5527 12.1469 8.64647C12.0531 8.74023 12.0004 8.86741 12.0004 9.00002C12.0004 9.13263 12.0531 9.25981 12.1469 9.35358C12.2407 9.44735 12.3678 9.50003 12.5004 9.50003C12.6331 9.50003 12.7602 9.44735 12.854 9.35358C12.9478 9.25981 13.0005 9.13263 13.0005 9.00002C13.0005 8.86741 12.9478 8.74023 12.854 8.64647C12.7602 8.5527 12.6331 8.50002 12.5004 8.50002ZM7.50039 16.0001C6.39738 16.0001 5.50037 15.1031 5.50037 14.0001C5.50037 12.8971 6.39738 12.0001 7.50039 12.0001C8.6034 12.0001 9.50041 12.8971 9.50041 14.0001C9.50041 15.1031 8.6034 16.0001 7.50039 16.0001ZM7.50039 13.5001C7.36778 13.5001 7.2406 13.5528 7.14683 13.6465C7.05306 13.7403 7.00038 13.8675 7.00038 14.0001C7.00038 14.1327 7.05306 14.2599 7.14683 14.3536C7.2406 14.4474 7.36778 14.5001 7.50039 14.5001C7.633 14.5001 7.76018 14.4474 7.85395 14.3536C7.94772 14.2599 8.0004 14.1327 8.0004 14.0001C8.0004 13.8675 7.94772 13.7403 7.85395 13.6465C7.76018 13.5528 7.633 13.5001 7.50039 13.5001ZM17.5005 16.0001C16.3975 16.0001 15.5005 15.1031 15.5005 14.0001C15.5005 12.8971 16.3975 12.0001 17.5005 12.0001C18.6035 12.0001 19.5005 12.8971 19.5005 14.0001C19.5005 15.1031 18.6035 16.0001 17.5005 16.0001ZM17.5005 13.5001C17.3679 13.5001 17.2407 13.5528 17.1469 13.6465C17.0532 13.7403 17.0005 13.8675 17.0005 14.0001C17.0005 14.1327 17.0532 14.2599 17.1469 14.3536C17.2407 14.4474 17.3679 14.5001 17.5005 14.5001C17.6331 14.5001 17.7603 14.4474 17.8541 14.3536C17.9478 14.2599 18.0005 14.1327 18.0005 14.0001C18.0005 13.8675 17.9478 13.7403 17.8541 13.6465C17.7603 13.5528 17.6331 13.5001 17.5005 13.5001Z" fill="#2F95DB"/>
<path d="M12.5001 22.7503C12.3726 22.7503 12.2472 22.7178 12.1357 22.6558C12.0243 22.5939 11.9304 22.5046 11.8631 22.3963L7.67306 15.6562C7.62106 15.5725 7.58604 15.4795 7.57001 15.3823C7.55398 15.2851 7.55724 15.1857 7.57962 15.0898C7.602 14.9938 7.64305 14.9033 7.70044 14.8232C7.75782 14.7431 7.83041 14.6752 7.91407 14.6232C7.99772 14.5712 8.0908 14.5361 8.18798 14.5201C8.28517 14.5041 8.38456 14.5073 8.48049 14.5297C8.57641 14.5521 8.66699 14.5932 8.74704 14.6505C8.8271 14.7079 8.89507 14.7805 8.94708 14.8642L12.5001 20.5802L16.0532 14.8642C16.1582 14.6952 16.326 14.5749 16.5198 14.5297C16.7135 14.4845 16.9172 14.5181 17.0862 14.6232C17.2551 14.7282 17.3754 14.896 17.4206 15.0898C17.4658 15.2835 17.4322 15.4872 17.3272 15.6562L13.1371 22.3963C13.0698 22.5046 12.976 22.5939 12.8645 22.6558C12.753 22.7178 12.6276 22.7503 12.5001 22.7503ZM19.3042 5.91207C19.1848 5.91214 19.0671 5.88371 18.9609 5.82913C18.8547 5.77455 18.7631 5.69541 18.6936 5.59828C18.6242 5.50116 18.5789 5.38886 18.5616 5.27072C18.5443 5.15258 18.5555 5.03202 18.5942 4.91906C18.6742 4.68605 18.7152 4.43505 18.7152 4.17305C18.7152 2.69903 17.3692 1.49902 15.7152 1.49902C14.6421 1.49902 13.6751 1.99802 13.1281 2.83303C12.8511 3.25604 12.1501 3.25604 11.8731 2.83303C11.3261 1.99902 10.3581 1.50002 9.28608 1.50002C7.63206 1.50002 6.28605 2.70003 6.28605 4.17405C6.28605 4.43505 6.32705 4.68605 6.40705 4.92006C6.47136 5.1085 6.45819 5.31477 6.37042 5.49349C6.28265 5.67221 6.12748 5.80875 5.93904 5.87307C5.75061 5.93738 5.54434 5.92421 5.36561 5.83644C5.18689 5.74867 5.05035 5.5935 4.98603 5.40506C4.85226 5.00848 4.78469 4.59258 4.78603 4.17405C4.78603 1.87302 6.80405 0 9.28608 0C10.5191 0 11.6641 0.458005 12.5001 1.25801C13.3361 0.458005 14.4811 0 15.7142 0C18.1952 0 20.2142 1.87302 20.2142 4.17405C20.2142 4.60005 20.1472 5.01406 20.0132 5.40506C19.9626 5.5529 19.867 5.68124 19.7399 5.77213C19.6128 5.86303 19.4605 5.91196 19.3042 5.91207Z" fill="#2F95DB"/>
<path d="M15.7142 24.0001C14.4812 24.0001 13.3361 23.5421 12.5001 22.7421C11.6641 23.5421 10.5191 24.0001 9.2861 24.0001C6.80507 24.0001 4.78605 22.1271 4.78605 19.826C4.78605 19.754 4.78805 19.68 4.79205 19.608C2.84103 18.775 1.57101 16.967 1.57101 14.935C1.57101 14.092 1.78601 13.282 2.19702 12.556C1.12301 11.6769 0.5 10.4189 0.5 9.06491C0.5 6.49388 2.75903 4.40186 5.53606 4.40186C7.13108 4.40186 8.42909 5.61587 8.42909 7.10889C8.42909 7.3078 8.35007 7.49857 8.20942 7.63922C8.06877 7.77988 7.878 7.8589 7.67908 7.8589C7.48017 7.8589 7.2894 7.77988 7.14875 7.63922C7.00809 7.49857 6.92907 7.3078 6.92907 7.10889C6.92907 6.44288 6.30407 5.90187 5.53606 5.90187C3.58604 5.90187 2.00002 7.32089 2.00002 9.06491C2.00002 10.1349 2.60202 11.1249 3.61004 11.7139C3.70292 11.7682 3.78304 11.8419 3.84495 11.9299C3.90687 12.0179 3.94912 12.1181 3.96885 12.2239C3.98858 12.3297 3.98533 12.4385 3.9593 12.5428C3.93328 12.6472 3.8851 12.7448 3.81804 12.829C3.33556 13.4245 3.07189 14.1675 3.07103 14.934C3.07103 16.505 4.18304 17.895 5.83806 18.393C6.21807 18.508 6.44307 18.899 6.35107 19.286C6.30857 19.4629 6.28676 19.6441 6.28607 19.826C6.28607 21.3001 7.63208 22.5001 9.2861 22.5001C10.3591 22.5001 11.3261 22.0011 11.8731 21.1661C12.1501 20.743 12.8511 20.743 13.1281 21.1661C13.6752 22.0011 14.6422 22.5001 15.7152 22.5001C17.3692 22.5001 18.7152 21.3001 18.7152 19.826C18.7145 19.6441 18.6927 19.4629 18.6502 19.286C18.6058 19.0998 18.6342 18.9037 18.7295 18.7377C18.8249 18.5718 18.98 18.4485 19.1632 18.393C20.8182 17.895 21.9302 16.505 21.9302 14.934C21.9302 14.169 21.6722 13.441 21.1832 12.829C21.1159 12.745 21.0674 12.6474 21.0412 12.5429C21.015 12.4385 21.0116 12.3296 21.0314 12.2237C21.0511 12.1179 21.0935 12.0175 21.1556 11.9295C21.2177 11.8415 21.2981 11.768 21.3912 11.7139C22.3993 11.1249 23.0013 10.1349 23.0013 9.06491C23.0013 7.32089 21.4152 5.90187 19.4652 5.90187C18.6972 5.90187 18.0722 6.44288 18.0722 7.10889C18.0722 7.7749 18.6972 8.3159 19.4652 8.3159C19.6641 8.3159 19.8549 8.39492 19.9956 8.53557C20.1362 8.67623 20.2152 8.867 20.2152 9.06591C20.2152 9.26483 20.1362 9.45559 19.9956 9.59625C19.8549 9.7369 19.6641 9.81592 19.4652 9.81592C17.8702 9.81592 16.5722 8.60191 16.5722 7.10889C16.5722 5.61587 17.8702 4.40186 19.4652 4.40186C22.2413 4.40186 24.5003 6.49388 24.5003 9.06491C24.5003 10.4189 23.8773 11.6769 22.8023 12.555C23.2143 13.282 23.4283 14.092 23.4283 14.934C23.4283 16.966 22.1583 18.775 20.2072 19.607C20.2112 19.68 20.2132 19.753 20.2132 19.825C20.2142 22.1271 18.1962 24.0001 15.7142 24.0001Z" fill="#2F95DB"/>
</svg>
