<svg width="25" height="24" viewBox="0 0 25 24" fill="none" xmlns="http://www.w3.org/2000/svg">
<g clip-path="url(#clip0_11_11919)">
<path d="M20.2271 10.717C20.1283 10.7173 20.0305 10.6979 19.9393 10.66C19.8481 10.622 19.7654 10.5663 19.6961 10.496C17.7711 8.564 15.2171 7.5 12.5001 7.5C9.78306 7.5 7.22906 8.564 5.30506 10.496C5.16462 10.637 4.97395 10.7164 4.77497 10.7167C4.576 10.7171 4.38502 10.6384 4.24406 10.498C4.10309 10.3576 4.02369 10.1669 4.02332 9.96792C4.02294 9.76894 4.10163 9.57796 4.24206 9.437C6.44906 7.221 9.38206 6 12.5001 6C15.6181 6 18.5511 7.221 20.7581 9.438C20.8625 9.543 20.9336 9.67658 20.9622 9.8219C20.9909 9.96723 20.9759 10.1178 20.9191 10.2546C20.8623 10.3914 20.7663 10.5083 20.6431 10.5906C20.5199 10.6729 20.3752 10.7169 20.2271 10.717Z" fill="#2F95DB"/>
<path d="M17.5367 13.4179C17.4379 13.4182 17.3401 13.3988 17.2489 13.3608C17.1577 13.3229 17.075 13.2671 17.0057 13.1969C15.7987 11.9849 14.1977 11.3179 12.4997 11.3179C10.8017 11.3179 9.20066 11.9849 7.99366 13.1969C7.92412 13.2667 7.84152 13.3221 7.75057 13.36C7.65961 13.3978 7.56209 13.4174 7.46357 13.4176C7.36505 13.4178 7.26745 13.3986 7.17636 13.361C7.08526 13.3235 7.00245 13.2684 6.93266 13.1989C6.86286 13.1293 6.80744 13.0467 6.76957 12.9558C6.73169 12.8648 6.7121 12.7673 6.71192 12.6688C6.71173 12.5703 6.73095 12.4727 6.76848 12.3816C6.80601 12.2905 6.86112 12.2077 6.93066 12.1379C8.42066 10.6419 10.3987 9.81787 12.4987 9.81787C14.5987 9.81787 16.5767 10.6419 18.0667 12.1379C18.1714 12.2428 18.2427 12.3763 18.2716 12.5217C18.3005 12.6671 18.2857 12.8178 18.2289 12.9548C18.1722 13.0918 18.0762 13.2088 17.953 13.2913C17.8298 13.3737 17.6849 13.4177 17.5367 13.4179ZM12.4997 17.9999C11.9211 17.9999 11.3662 17.77 10.9571 17.3609C10.548 16.9518 10.3182 16.3969 10.3182 15.8184C10.3182 15.2398 10.548 14.6849 10.9571 14.2758C11.3662 13.8667 11.9211 13.6369 12.4997 13.6369C13.0782 13.6369 13.6331 13.8667 14.0422 14.2758C14.4513 14.6849 14.6812 15.2398 14.6812 15.8184C14.6812 16.3969 14.4513 16.9518 14.0422 17.3609C13.6331 17.77 13.0782 17.9999 12.4997 17.9999ZM12.4997 15.1369C12.1267 15.1369 11.8237 15.4429 11.8237 15.8189C11.8237 16.1949 12.1267 16.4999 12.4997 16.4999C12.8727 16.4999 13.1757 16.1939 13.1757 15.8179C13.1757 15.4419 12.8727 15.1369 12.4997 15.1369Z" fill="#2F95DB"/>
<path d="M12.5 24C5.883 24 0.5 18.617 0.5 12C0.5 5.383 5.883 0 12.5 0C19.117 0 24.5 5.383 24.5 12C24.5 18.617 19.117 24 12.5 24ZM12.5 1.5C6.71 1.5 2 6.21 2 12C2 17.79 6.71 22.5 12.5 22.5C18.29 22.5 23 17.79 23 12C23 6.21 18.29 1.5 12.5 1.5Z" fill="#2F95DB"/>
</g>
<defs>
<clipPath id="clip0_11_11919">
<rect width="24" height="24" fill="white" transform="translate(0.5)"/>
</clipPath>
</defs>
</svg>
