<svg width="25" height="24" viewBox="0 0 25 24" fill="none" xmlns="http://www.w3.org/2000/svg">
<g clip-path="url(#clip0_11_11929)">
<path d="M18.75 24H6.25C6.05109 24 5.86032 23.921 5.71967 23.7803C5.57902 23.6397 5.5 23.4489 5.5 23.25V0.75C5.5 0.551088 5.57902 0.360322 5.71967 0.21967C5.86032 0.0790176 6.05109 0 6.25 0L18.75 0C18.9489 0 19.1397 0.0790176 19.2803 0.21967C19.421 0.360322 19.5 0.551088 19.5 0.75V23.25C19.5 23.4489 19.421 23.6397 19.2803 23.7803C19.1397 23.921 18.9489 24 18.75 24ZM7 22.5H18V1.5H7V22.5Z" fill="#2F95DB"/>
<path d="M18.75 18.5H6.25C6.05109 18.5 5.86032 18.421 5.71967 18.2803C5.57902 18.1397 5.5 17.9489 5.5 17.75V6.75C5.5 6.55109 5.57902 6.36032 5.71967 6.21967C5.86032 6.07902 6.05109 6 6.25 6H18.75C18.9489 6 19.1397 6.07902 19.2803 6.21967C19.421 6.36032 19.5 6.55109 19.5 6.75V17.75C19.5 17.9489 19.421 18.1397 19.2803 18.2803C19.1397 18.421 18.9489 18.5 18.75 18.5ZM7 17H18V7.5H7V17ZM16 4.5H9C8.80109 4.5 8.61032 4.42098 8.46967 4.28033C8.32902 4.13968 8.25 3.94891 8.25 3.75C8.25 3.55109 8.32902 3.36032 8.46967 3.21967C8.61032 3.07902 8.80109 3 9 3H16C16.1989 3 16.3897 3.07902 16.5303 3.21967C16.671 3.36032 16.75 3.55109 16.75 3.75C16.75 3.94891 16.671 4.13968 16.5303 4.28033C16.3897 4.42098 16.1989 4.5 16 4.5Z" fill="#2F95DB"/>
<path d="M12.5 18.5C12.3011 18.5 12.1103 18.421 11.9697 18.2803C11.829 18.1397 11.75 17.9489 11.75 17.75V6.75C11.75 6.55109 11.829 6.36032 11.9697 6.21967C12.1103 6.07902 12.3011 6 12.5 6C12.6989 6 12.8897 6.07902 13.0303 6.21967C13.171 6.36032 13.25 6.55109 13.25 6.75V17.75C13.25 17.9489 13.171 18.1397 13.0303 18.2803C12.8897 18.421 12.6989 18.5 12.5 18.5Z" fill="#2F95DB"/>
<path d="M18.75 13H6.25C6.05109 13 5.86032 12.921 5.71967 12.7803C5.57902 12.6397 5.5 12.4489 5.5 12.25C5.5 12.0511 5.57902 11.8603 5.71967 11.7197C5.86032 11.579 6.05109 11.5 6.25 11.5H18.75C18.9489 11.5 19.1397 11.579 19.2803 11.7197C19.421 11.8603 19.5 12.0511 19.5 12.25C19.5 12.4489 19.421 12.6397 19.2803 12.7803C19.1397 12.921 18.9489 13 18.75 13ZM19.75 24H5.25C5.05109 24 4.86032 23.921 4.71967 23.7803C4.57902 23.6397 4.5 23.4489 4.5 23.25C4.5 23.0511 4.57902 22.8603 4.71967 22.7197C4.86032 22.579 5.05109 22.5 5.25 22.5H19.75C19.9489 22.5 20.1397 22.579 20.2803 22.7197C20.421 22.8603 20.5 23.0511 20.5 23.25C20.5 23.4489 20.421 23.6397 20.2803 23.7803C20.1397 23.921 19.9489 24 19.75 24Z" fill="#2F95DB"/>
</g>
<defs>
<clipPath id="clip0_11_11929">
<rect width="24" height="24" fill="white" transform="translate(0.5)"/>
</clipPath>
</defs>
</svg>
